<svg xmlns="http://www.w3.org/2000/svg" viewBox="0 0 229 239"><g fill="none" fill-rule="evenodd" transform="translate(-86 -2)"><path fill="#F0F1F1" fill-rule="nonzero" d="M182.34 117.19l-.07.09-2.51 3.3.26 3.04 10.06-1.15-.45-3.25-3.44-2.54z"/><path fill="#9ED1E3" fill-rule="nonzero" d="M190.95 128.67l-.41-3.2c0-.21-.17-.36-.32-.34a.34.34 0 00.23-.41l-.28-2.17-10 1.27.28 2.17c0 .21.17.36.32.34-.15 0-.25.2-.23.41l.41 3.2c0 .21.17.36.32.34a.34.34 0 00-.23.41l.41 3.2c0 .21.17.36.32.34a.34.34 0 00-.23.41l.41 3.2c0 .21.17.36.32.34l9.45-1.2a.34.34 0 00.23-.41l-.41-3.2c0-.21-.17-.36-.32-.34a.34.34 0 00.23-.41l-.41-3.2c0-.21-.17-.36-.32-.34a.34.34 0 00.23-.41z"/><path fill="#D8B071" fill-rule="nonzero" d="M182.226 116.615l4.256-.54.126.992-4.256.54z"/><path fill="#E9B13D" fill-rule="nonzero" d="M185.6 113.66l-3.21.41a.54.54 0 00-.47.6l.22 1.74a.17.17 0 00.19.15l3.94-.5a.17.17 0 00.15-.19l-.22-1.74a.54.54 0 00-.6-.47z"/><path fill="#424243" fill-rule="nonzero" d="M190.92 131l-5.09.65-3.26.41-.93.12c-.28 0-.55.14-.53.49.02.35.11.88.17 1.31l.1.79a.9.9 0 00.11.44c.16.22.42.16.64.13l1-.13 6.76-.86 1.08-.14a1 1 0 00.56-.15c.27-.25.07-.89 0-1.2-.06-.49-.1-1-.19-1.47a.44.44 0 00-.47-.4c-.18 0-.14.28 0 .28s.17.26.19.39l.1.76.11.85c.034.148.054.298.06.45 0 .21-.25.18-.41.2l-1 .12-6.41.82-1.17.15a3.35 3.35 0 01-.58.07.18.18 0 01-.18-.16c0-.18 0-.37-.07-.56l-.2-1.55c0-.13-.07-.27.1-.34a.64.64 0 01.15 0l.82-.1 3-.38c1.8-.23 3.61-.43 5.4-.69h.1a.151.151 0 00.04-.3z"/><path fill="#424243" fill-rule="nonzero" d="M191.28 133.87l-5.09.65-3.26.41-.93.07c-.28 0-.55.14-.53.49.02.35.11.88.17 1.31l.1.79a.9.9 0 00.11.44c.16.22.42.16.64.13l1-.13 6.76-.86 1.08-.14a1 1 0 00.56-.15c.27-.25.07-.89 0-1.2-.06-.49-.1-1-.19-1.47a.44.44 0 00-.47-.4c-.18 0-.14.28 0 .28s.17.26.19.39l.1.76.11.85c.034.148.054.298.06.45 0 .21-.25.18-.41.2l-1 .12-6.41.82-1.17.15a3.36 3.36 0 01-.58.07.18.18 0 01-.18-.16c0-.18 0-.37-.07-.56l-.2-1.55c0-.13-.07-.27.1-.34a.64.64 0 01.15 0l.82-.1 3-.38c1.8-.23 3.61-.43 5.4-.69h.1a.14.14 0 00.04-.25zm-.73-5.79l-5.09.65-3.26.41-.93.12c-.28 0-.55.14-.53.49.02.35.11.88.17 1.31l.1.79a.9.9 0 00.11.44c.16.22.42.16.64.13l1-.13 6.76-.86 1.08-.14a1 1 0 00.56-.15c.27-.25.07-.89 0-1.2-.06-.49-.1-1-.19-1.47a.44.44 0 00-.47-.4c-.18 0-.14.28 0 .28s.17.26.19.39l.1.76.11.85c.034.148.054.298.06.45 0 .21-.25.18-.41.2l-1 .12-6.41.82-1.17.15a3.36 3.36 0 01-.58.07.18.18 0 01-.18-.16c0-.18 0-.37-.07-.56l-.2-1.55c0-.13-.07-.27.1-.34a.65.65 0 01.15 0l.82-.1 3-.38c1.8-.23 3.61-.43 5.4-.69h.1a.151.151 0 00.04-.3z"/><path fill="#424243" fill-rule="nonzero" d="M190.18 125.19l-5.09.65-3.26.41-.93.12c-.28 0-.55.14-.53.49.02.35.11.88.17 1.31l.1.79a.9.9 0 00.11.44c.16.22.42.16.64.13l1-.13 6.76-.86 1.08-.14a1 1 0 00.56-.15c.27-.25.07-.89 0-1.2-.06-.49-.1-1-.19-1.47a.44.44 0 00-.47-.4c-.18 0-.14.28 0 .28s.17.26.19.39l.1.76.11.85c.034.148.054.298.06.45 0 .21-.25.18-.41.2l-1 .12-6.41.82-1.17.15a3.36 3.36 0 01-.58.07.18.18 0 01-.18-.16c0-.18 0-.37-.07-.56l-.2-1.55c0-.13-.07-.27.1-.34a.64.64 0 01.15 0l.82-.1 3-.38c1.8-.23 3.61-.43 5.4-.69h.1a.151.151 0 10.04-.3z"/><path fill="#424243" fill-rule="nonzero" d="M189.81 122.3l-5.09.65-3.26.41-.93.12c-.28 0-.55.14-.53.49.02.35.11.88.17 1.31l.1.79a.9.9 0 00.11.44c.16.22.42.16.64.13l1-.13 6.76-.86 1.08-.14a1 1 0 00.56-.15c.27-.25.07-.89 0-1.2-.06-.49-.1-1-.19-1.47a.44.44 0 00-.47-.4c-.18 0-.14.28 0 .28s.17.26.19.39l.1.76.11.85c.034.148.054.298.06.45 0 .21-.25.18-.41.2l-1 .12-6.41.82-1.17.15a3.36 3.36 0 01-.58.07.18.18 0 01-.18-.16c0-.18 0-.37-.07-.56l-.2-1.55c0-.13-.07-.27.1-.34a.63.63 0 01.15 0l.82-.1 3-.38c1.8-.23 3.61-.43 5.4-.69h.1a.151.151 0 00.04-.3z"/><path fill="#424243" fill-rule="nonzero" d="M189.45 119.4l-5.09.65-3.26.41-.93.12c-.28 0-.55.14-.53.49.02.35.11.88.17 1.31l.1.79a.9.9 0 00.11.44c.16.22.42.16.64.13l1-.13 6.76-.86 1.08-.14a1 1 0 00.56-.15c.27-.25.07-.89 0-1.2-.06-.49-.1-1-.19-1.47a.44.44 0 00-.47-.4c-.18 0-.14.28 0 .28s.17.26.19.39l.1.76.11.85c.034.148.054.298.06.45 0 .21-.25.18-.41.2l-1 .12-6.41.82-1.17.15a3.36 3.36 0 01-.58.07.18.18 0 01-.18-.16c0-.18 0-.37-.07-.56l-.2-1.55c0-.13-.07-.27.1-.34a.64.64 0 01.15 0l.82-.1 3-.38c1.8-.23 3.61-.43 5.4-.69h.1a.151.151 0 00.04-.3zm-3.08-3.4l-4.25.54a.14.14 0 00-.12.16l.07.54a.14.14 0 00.16.12l4.25-.54a.14.14 0 00.12-.16l-.07-.54a.14.14 0 00-.28 0l.07.54.12-.16-4.25.54.16.12-.07-.54-.12.16 4.25-.54a.14.14 0 00-.04-.24z"/><path fill="#424243" fill-rule="nonzero" d="M185.53 113.55l-2.81.36c-.4.05-.85.08-1 .56a1.59 1.59 0 000 .58l.11.87c0 .32 0 .84.46.81.46-.03.78-.1 1.17-.15l1.8-.23a9.37 9.37 0 00.93-.12c.27-.06.28-.28.25-.5l-.12-.91c-.07-.55-.08-1.31-.85-1.27-.18 0-.15.29 0 .28.55 0 .5.81.55 1.19l.09.71c0 .1.05.18 0 .22a1.17 1.17 0 01-.33 0l-.61.08-1.57.2-1.22.15h-.21c-.05 0 0-.36-.06-.46-.05-.42-.13-.84-.16-1.26-.03-.42.48-.47.82-.52l2.73-.35a.14.14 0 00.03-.24zm.99 3.21c-.31-.24-.61-.13-1-.09l-1.5.18-1.47.18a.5.5 0 00-.36.13c-.08.08-.14.18-.22.27-.72.87-1.49 1.71-2.13 2.65a1.29 1.29 0 00-.23.44 1.68 1.68 0 000 .5.14.14 0 00.25.07l.18-.19c.1-.11 0 0 0 0h.12l.61-.08 2.29-.29 5.3-.67.8-.1h.16c.01 0-.09-.05-.06 0s.21.12.28.17a.14.14 0 00.23-.13 1.13 1.13 0 00-.17-.63 4.6 4.6 0 00-.85-.71c-.76-.56-1.56-1.05-2.3-1.62a.14.14 0 00-.17.22c.69.53 1.43 1 2.14 1.51.315.21.612.443.89.7.17.17.16.33.19.57l.23-.13c-.17-.1-.31-.23-.5-.21l-.57.07-2.32.29-5.44.69-.75.1c-.23 0-.32.17-.48.33l.25.07a1.38 1.38 0 010-.43 1.93 1.93 0 01.33-.51c.39-.53.82-1 1.24-1.55l.62-.75c.08-.09.15-.2.24-.29.09-.09.5-.16.74-.19l1.65-.2.78-.09c.26 0 .59-.15.82 0a.166.166 0 00.18-.28z"/><path fill="#E9B13D" fill-rule="nonzero" d="M172.29 110.26a.27.27 0 010 .15c0 .86-.47 1.16-1.18 1.22v5.47h1.56v-1.49a.31.31 0 01.61 0v1.49h1.59v-2.29a.31.31 0 01.61 0v2.29h1.46v-5.46H175a.31.31 0 010-.61h2.21c.42 0 .46-.4.52-.71-.1-2-4.5-1.72-5.93-1.79h-1.75a3.37 3.37 0 012.24 1.73z"/><path fill="#424243" fill-rule="nonzero" d="M178.37 110.42a.31.31 0 010 .05v-.05z"/><path fill="#424243" fill-rule="nonzero" d="M178.37 110.41a.32.32 0 00-.31-.37c.012.1.012.2 0 .3a1.4 1.4 0 010 .26.29.29 0 00.34-.15.31.31 0 00-.03-.04z"/><path fill="#424243" fill-rule="nonzero" d="M169.08 108.26a21.56 21.56 0 013.42 0c.893.06 1.787.133 2.68.22a4.3 4.3 0 012.24.56c.345.23.58.592.65 1a.32.32 0 01.31.37.29.29 0 000-.07c-.09-2.18-2.7-2.12-4.31-2.25a25.92 25.92 0 00-6.26.07 6.42 6.42 0 011.27.1zm8.92 2.36c-.13.45-.16.67-.61.71a.3.3 0 01-.16.28l.31-.31v.25c.52-.14.68-.5.8-1.13a.29.29 0 01-.34.2zm-.75 6.49v.31h-1.76a.31.31 0 01-.61 0h-1.59a.31.31 0 01-.61 0h-1.56a.31.31 0 01-.31.31h6.44a.31.31 0 00.31-.31v-5.82l-.31.05v5.46z"/><path fill="#424243" fill-rule="nonzero" d="M177.25 111.65l.31-.05v-.25zm.52-1.31c-.05.31-.09.67-.52.71h-.06a.29.29 0 01.22.28c.46 0 .49-.26.61-.71a.29.29 0 01-.25-.28z"/><path fill="#424243" fill-rule="nonzero" d="M176.95 111.65v5.46h.31v-5.49a.3.3 0 01-.14 0l-.17.03z"/><path fill="#424243" fill-rule="nonzero" d="M176.95 117.41l.31-.31h-.31z"/><path fill="#424243" fill-rule="nonzero" d="M175.49 117.11v.31h1.46v-.31z"/><path fill="#424243" fill-rule="nonzero" d="M177.25 117.41v-.31l-.31.31zm.17-8.36a4.3 4.3 0 00-2.24-.56 90.693 90.693 0 00-2.68-.22 21.56 21.56 0 00-3.42 0c.243.043.484.1.72.17l.29.1h1.75c1.43.07 5.83-.19 5.93 1.79v-.07a.25.25 0 01.28-.22 1.51 1.51 0 00-.63-.99z"/><path fill="#424243" fill-rule="nonzero" d="M177.78 110.26v.07a.29.29 0 00.25.28 1.4 1.4 0 000-.26c.012-.1.012-.2 0-.3a.25.25 0 00-.25.21zm-6.66 6.85v.31h1.56v-.31zm2.17 0v.31h1.59v-.31z"/><path fill="#F0F1F1" fill-rule="nonzero" d="M167.2 108.81a5.49 5.49 0 00-2.33.81c-.12.1-.26.07-.39.17a2.58 2.58 0 00-.37.36.63.63 0 00-.14.23.47.47 0 00.2.48c.27.19 1.1.05 1.1.5v5.76h4.27l-1.89-8.33-.45.02zm2.95 8.27a.27.27 0 00-.2 0 .5.5 0 01.2 0zm-.44-1.97a7.46 7.46 0 01.44 1.94h.32v-5.76a.31.31 0 01.31-.31c.39 0 .9.1.88-.64-.42-1.11-2.09-1.54-3.41-1.62l.79 3.48.67 2.91zm.44 1.97h.05zm-2.5-8.3l1.89 8.33h.31l-1.85-8.34zm2.54 8.3h.3z"/><path fill="#F0F1F1" fill-rule="nonzero" d="M170.15 117.07a7.46 7.46 0 00-.44-1.94l-.65-2.85-.79-3.48H168l1.89 8.33h.1a.27.27 0 01.16-.06z"/><path fill="#F0F1F1" fill-rule="nonzero" d="M170 117.11h.2a.5.5 0 00-.2 0z"/><path fill="#424243" fill-rule="nonzero" d="M169.63 117.49v-.08H165v-5.76h-.31v5.77c0 .171.139.31.31.31h5a.31.31 0 01-.37-.24zm-4.97-6.15v.29h.34z"/><path fill="#424243" fill-rule="nonzero" d="M164.45 111.34a.77.77 0 01-.7-1 2.47 2.47 0 011-1 6 6 0 012.88-.88.29.29 0 01.21-.31 6.41 6.41 0 00-2.35.48c-.76.31-2.12 1-2 2 .06.74.65.94 1.25 1v-.29h-.29z"/><path fill="#424243" fill-rule="nonzero" d="M164.66 111.34l.31.31v-.31zm6.4-1.99c.317.181.593.427.81.72a.32.32 0 01.43.28v.07a.27.27 0 000-.15 3.37 3.37 0 00-2.2-1.73l-.94.06a5.71 5.71 0 011.9.75z"/><path fill="#424243" fill-rule="nonzero" d="M172 110.63c0 .38-.3.694-.68.71h-.21v.29c.72-.06 1.21-.36 1.18-1.22a.29.29 0 01-.29.22z"/><path fill="#424243" fill-rule="nonzero" d="M170.81 111.65h.31v-.29z"/><path fill="#424243" fill-rule="nonzero" d="M170.81 111.65v5.46h.31v-5.47zm0-.31v.31l.31-.31zm1.19-.99a1 1 0 010 .29.29.29 0 00.29-.21v-.07a.32.32 0 00-.43-.28v.07a.85.85 0 01.14.2zm-4.41-1.88h.57l.76-.12h.14a6.42 6.42 0 00-1.28-.11.29.29 0 00-.19.23zm3.53 8.94h-1.51v.08a.31.31 0 00.29.22h.89a.31.31 0 00.33-.3z"/><path fill="#424243" fill-rule="nonzero" d="M169.15 108.6l.94-.06-.29-.1a6.33 6.33 0 00-.72-.17h-.14l-.76.12v.07a6.4 6.4 0 01.97.14zm1.66 8.51v.31h.31v-.31zm-2.6-8.64v-.07.06zm-.05-.07h-.27.24zm-2.89 8.71v.31h4.34l-.07-.31z"/><path fill="#424243" fill-rule="nonzero" d="M165 117.41h.31l-.31-.31z"/><path fill="#424243" fill-rule="nonzero" d="M165 117.11l.31.31v-.31z"/><path fill="#424243" fill-rule="nonzero" d="M165.27 111.34c0-.51-.86-.19-1.06-.58a.64.64 0 010-.61 2.1 2.1 0 01.61-.54 5.49 5.49 0 012.33-.81h.45l-.06-.25a.33.33 0 010-.06 6 6 0 00-2.88.88 2.47 2.47 0 00-1 1 .77.77 0 00.7 1h.64v5.76h.31l-.04-5.79zm6.42-.99v.05a.3.3 0 00.31.21 1 1 0 000-.29.85.85 0 00-.07-.21v-.07a.26.26 0 00-.24.31zm-1.48 6.76h-.05c-.02.27.09.09.05 0z"/><path fill="#424243" fill-rule="nonzero" d="M171.69 110.4v-.05a.26.26 0 01.18-.28 2.64 2.64 0 00-.81-.72 5.71 5.71 0 00-1.91-.75l-.89.11v.08c1.34.07 3.01.5 3.43 1.61zm-.88.94h.51a.71.71 0 00.68-.71.3.3 0 01-.31-.21c0 .74-.48.64-.88.64a.31.31 0 00-.31.31v5.76h.31v-5.79zm-1.27 5.77l.07.31h.31l-.07-.31zm-1.89-8.33h.35l-.07-.33h-.3a.33.33 0 000 .06l.02.27zm.56-.31l.05.23.89-.11a6.4 6.4 0 00-.94-.12z"/><path fill="#424243" fill-rule="nonzero" d="M168.13 108.47l-.16.28h.29l-.05-.23z"/><path fill="#424243" fill-rule="nonzero" d="M168.28 108.78v-.08h-.29l.16-.28h-.24l.07.33zm1.93 8.33c0 .1-.07.28-.05 0h-.3l.07.31h.58v-.31h-.3zm.37 0h-.07v.31l.31-.31z"/><path fill="#424243" fill-rule="nonzero" d="M170.51 117.41h.31v-.31zM175 111a.31.31 0 000 .61h1.9v-.31a.3.3 0 01.24-.29h-.08L175 111zm2.25.62a.3.3 0 00.16-.28h-.16v.28z"/><path fill="#424243" fill-rule="nonzero" d="M177.19 111.05a.3.3 0 00-.24.29v.31h.17a.3.3 0 00.14 0v-.27h.16a.29.29 0 00-.23-.33zm-4.51 4.56v1.49h.63v-1.49a.315.315 0 10-.63 0zm0 1.8a.31.31 0 00.61 0h-.61z"/><path fill="#424243" fill-rule="nonzero" d="M173 117.11h-.31v.31h.31zm.22 0H173v.31h.31v-.31zm1.66-2.3v2.29h.62v-2.29a.31.31 0 00-.62 0zm0 2.6a.31.31 0 00.61 0h-.61z"/><path fill="#424243" fill-rule="nonzero" d="M175.18 117.11h-.31v.31h.31zm0 0v.31h.31v-.31z"/><path fill="#D8B071" fill-rule="nonzero" d="M164.64 120.89c.089.427.293.82.59 1.14l1.17.22.42-.58a3.9 3.9 0 00.18-.67c.22-.882.354-1.783.4-2.69a16.91 16.91 0 00-.1-3 3.67 3.67 0 01-1.13 1.51c-.27.2-.56-.32-.29-.52a3.55 3.55 0 001.19-2 .28.28 0 01.06-.12c-.12-.68-.28-1.36-.46-2v-.16a3.87 3.87 0 01-1.26 1.84c-.27.2-.56-.32-.29-.52a3.55 3.55 0 001.19-2 .25.25 0 01.11-.16 22.46 22.46 0 00-.85-2.24 3.91 3.91 0 01-1.29 1.91c-.27.2-.56-.32-.29-.52a3.55 3.55 0 001.19-2 .28.28 0 01.06-.12 17.59 17.59 0 00-1-1.71 11.29 11.29 0 00-1.89-2.34c-.6-.54-2.61-1.52-2.53.21l1.54 5.35c1.12 3.72 2.07 7.5 3.28 11.17z"/><path fill="#424243" fill-rule="nonzero" d="M159.35 104.39a.36.36 0 010-.08v.08z"/><path fill="#424243" fill-rule="nonzero" d="M159.69 104.68l-.08-.28a1.14 1.14 0 010-.29.25.25 0 00-.26.23.36.36 0 000 .08.28.28 0 00.34.26z"/><path fill="#424243" fill-rule="nonzero" d="M167.14 122.26a7.27 7.27 0 00.7-2.67 16.25 16.25 0 00.09-3.71 22.75 22.75 0 00-1.74-6.82c-.91-2.16-2.31-4.73-4.24-5.91-1-.64-2.66-.39-2.61 1.19a.25.25 0 01.26-.23 1.29 1.29 0 011.76-1 5.63 5.63 0 012 1.63 16.18 16.18 0 012.14 3.36.28.28 0 01.2.35c.386.849.72 1.72 1 2.61a.28.28 0 01.12.32l.1.33c.212.734.385 1.478.52 2.23a.28.28 0 01.2.35c0 .1-.06.2-.09.3a16.21 16.21 0 010 5.16 7.17 7.17 0 01-.61 2.21 1.06 1.06 0 01-1.64.33 2.75 2.75 0 01-.83-1.29l-2.56-8.86-2.2-7.62a.28.28 0 01-.33-.25l3.94 13.65a18.08 18.08 0 001.17 3.75c.66 1.4 1.94 1.73 2.65.59z"/><path fill="#424243" fill-rule="nonzero" d="M166.71 112.11c.19.67.34 1.35.46 2a.24.24 0 01.25-.06 22.16 22.16 0 00-.52-2.23l-.1-.33c0 .15-.09.29-.14.44l.05.18zm.74 6.16A14.12 14.12 0 01167 121a3.92 3.92 0 01-.23.71l-.42.58-1.17-.22a2.39 2.39 0 01-.59-1.14c-1.21-3.67-2.15-7.45-3.23-11.17l-1.54-5.35a.24.24 0 01-.18.27l2.2 7.62 2.56 8.86c.149.5.437.947.83 1.29a1.06 1.06 0 001.64-.33c.32-.7.527-1.445.61-2.21a16.21 16.21 0 000-5.16 5.21 5.21 0 01-.19.5c.143 1 .197 2.01.16 3.02z"/><path fill="#424243" fill-rule="nonzero" d="M159.69 104.68a.24.24 0 00.18-.27.27.27 0 00-.25-.21 1.14 1.14 0 000 .29l.07.19zm6.73 6.47a.26.26 0 01.27 0 23.07 23.07 0 00-1-2.61c0 .12-.07.24-.11.37.32.731.6 1.479.84 2.24z"/><path fill="#424243" fill-rule="nonzero" d="M159.85 104.33c-.08-1.73 1.93-.75 2.53-.21a11.29 11.29 0 011.89 2.34c.365.55.7 1.122 1 1.71a.24.24 0 01.25-.07 16.18 16.18 0 00-2.14-3.36 5.63 5.63 0 00-2-1.63 1.29 1.29 0 00-1.76 1 .27.27 0 01.23.22zm4.15 5.97c-.27.2 0 .72.29.52a3.91 3.91 0 001.29-1.91l-.17-.37a4 4 0 01-1.27 2l1.25-2.05-.14-.29a.28.28 0 00-.06.12 3.55 3.55 0 01-1.19 1.98zm1.69-1.8a.28.28 0 00-.2-.35l.18.4.02-.05z"/><path fill="#424243" fill-rule="nonzero" d="M165.24 108.21l.14.29.05-.09v.12l.17.37c0-.12.08-.24.11-.37l-.18-.4a.24.24 0 00-.29.08zm.16.33l-1.25 2.05a4 4 0 001.25-2.05zm.04-.12l-.05.09zm-.33 4.86c-.27.2 0 .72.29.52a3.87 3.87 0 001.26-1.84l-.14-.46a4 4 0 01-1.27 2l1.26-2.07-.1-.31a.25.25 0 00-.11.16 3.55 3.55 0 01-1.19 2zm1.71-1.8a.28.28 0 00-.12-.32l.11.36.01-.04z"/><path fill="#424243" fill-rule="nonzero" d="M166.42 111.15l.1.31v-.07.1l.14.46c.05-.14.1-.29.14-.44l-.11-.36a.26.26 0 00-.27 0z"/><path fill="#424243" fill-rule="nonzero" d="M166.53 111.5l-1.26 2.07a4 4 0 001.26-2.07zm.03-.11v.07zm-.64 4.84c-.27.2 0 .72.29.52a3.67 3.67 0 001.13-1.51c0-.19-.05-.38-.08-.56a3.77 3.77 0 01-1.2 1.81l1.18-1.94-.07-.4a.28.28 0 00-.06.12 3.55 3.55 0 01-1.19 1.96zm1.7-1.79a.28.28 0 00-.2-.35c0 .22.08.44.11.66.03-.11.06-.21.09-.31z"/><path fill="#424243" fill-rule="nonzero" d="M167.18 114.15l.07.4.12-.2s0 .13-.1.33.06.38.08.56a5.21 5.21 0 00.19-.5c0-.22-.07-.44-.11-.66a.24.24 0 00-.25.07z"/><path fill="#424243" fill-rule="nonzero" d="M167.26 114.68v-.13l-1.18 1.94a3.77 3.77 0 001.18-1.81z"/><path fill="#424243" fill-rule="nonzero" d="M167.37 114.35l-.12.2v.13c.08-.2.12-.33.12-.33z"/><path fill="#8E7558" fill-rule="nonzero" d="M179.83 113.82v-.01l-.98-.9-1.16.9-1.3-.9-1.12.9-1.17-.9-1.27.9-1.22-.9-1.3.9-1.06-.9-1.23.9-1.04-.9-1.07.9-1.13-.9-1.29.9-1.12-.9-1.25.9v25.05h18.71v-25.04z"/><path fill="#424243" fill-rule="nonzero" d="M179.83 139.15h-18.71a.3.3 0 01-.3-.3v-25a.31.31 0 01.12-.24l1.25-.91a.3.3 0 01.36 0l1 .77 1.1-.78a.3.3 0 01.36 0l.93.75.89-.75a.3.3 0 01.38 0l.86.75 1-.76a.3.3 0 01.37 0l.89.76 1.11-.78a.3.3 0 01.35 0l1 .78 1.1-.78a.3.3 0 01.35 0l1 .76.94-.76a.3.3 0 01.35 0l1.12.78 1-.77a.3.3 0 01.38 0l1 .91a.3.3 0 01.09.15.3.3 0 010 .07v25a.3.3 0 01-.29.35zm-18.42-.59h18.12v-24.61l-.71-.65-1 .75a.3.3 0 01-.35 0l-1.12-.78-1 .77a.3.3 0 01-.37 0l-1-.77-1.09.78a.3.3 0 01-.35 0l-1-.78-1.13.78a.3.3 0 01-.36 0l-.89-.75-1 .77a.3.3 0 01-.37 0l-.84-.74-.89.74a.3.3 0 01-.38 0l-1-.77-1.1.78a.3.3 0 01-.36 0l-.95-.76-.94.68.08 24.56z"/><path fill="#AF9068" fill-rule="nonzero" d="M179.83 113.82v-.01l-.98-.9-1.16.9-1.3-.9-1.12.9-1.17-.9-1.22.87v25.08h6.95v-25.04z"/><path fill="#424243" fill-rule="nonzero" d="M179.83 139.15h-18.71a.3.3 0 01-.3-.3v-25a.31.31 0 01.12-.24l1.25-.91a.3.3 0 01.36 0l1 .77 1.1-.78a.3.3 0 01.36 0l.93.75.89-.75a.3.3 0 01.38 0l.86.75 1-.76a.3.3 0 01.37 0l.89.76 1.11-.78a.3.3 0 01.35 0l1 .78 1.1-.78a.3.3 0 01.35 0l1 .76.94-.76a.3.3 0 01.35 0l1.12.78 1-.77a.3.3 0 01.38 0l1 .91a.3.3 0 01.09.15.3.3 0 010 .07v25a.3.3 0 01-.29.35zm-18.42-.59h18.12v-24.61l-.71-.65-1 .75a.3.3 0 01-.35 0l-1.12-.78-1 .77a.3.3 0 01-.37 0l-1-.77-1.09.78a.3.3 0 01-.35 0l-1-.78-1.13.78a.3.3 0 01-.36 0l-.89-.75-1 .77a.3.3 0 01-.37 0l-.84-.74-.89.74a.3.3 0 01-.38 0l-1-.77-1.1.78a.3.3 0 01-.36 0l-.95-.76-.94.68.08 24.56z"/><path fill="#D8B071" fill-rule="nonzero" d="M188.31 138.54a4.41 4.41 0 001.26-.25 2.88 2.88 0 001.13-.55.6.6 0 00.22-.43.71.71 0 00-.18-.38c-.1-.13 0-.36-.11-.49a3.82 3.82 0 00-1.13-1.1 20.29 20.29 0 00-3.44-1.23 21.5 21.5 0 00-3.74-.91 4.66 4.66 0 011.46 1.9c.15.4-.59.58-.74.18a4.52 4.52 0 00-2-2.14.35.35 0 01-.13-.12c-.88-.09-1.76-.13-2.65-.13h-.21a4.91 4.91 0 011.81 2.18c.15.4-.59.58-.74.18a4.52 4.52 0 00-2-2.13.32.32 0 01-.16-.2 28.55 28.55 0 00-3 .27 5 5 0 011.89 2.23c.15.4-.59.58-.74.18a4.51 4.51 0 00-2-2.13.36.36 0 01-.12-.11 22.37 22.37 0 00-2.42.58 14.35 14.35 0 00-3.51 1.51c-.87.55-2.76 2.67-.62 3.17h7.07c4.93-.1 9.89.13 14.8-.08z"/><path fill="#424243" fill-rule="nonzero" d="M166.29 139.24h-.1zm.47-.32h-.37a1.45 1.45 0 01-.35-.1.31.31 0 00.19.39h.1a.35.35 0 00.43-.29z"/><path fill="#424243" fill-rule="nonzero" d="M190.84 135.85a9.24 9.24 0 00-3-1.77 20.65 20.65 0 00-4.51-1.38 28.91 28.91 0 00-8.94-.22c-3 .37-6.58 1.21-8.69 3.15-1.15 1.06-1.39 3.12.56 3.6a.31.31 0 01-.19-.39 1.64 1.64 0 01-.57-2.48 7.15 7.15 0 012.68-1.87A20.57 20.57 0 01173 133a.36.36 0 01.5-.12h.05a29.3 29.3 0 013.55-.34.35.35 0 01.43 0h.47a28.2 28.2 0 012.91.13.36.36 0 01.5-.12l.34.21a20.6 20.6 0 016.31 1.79 8.63 8.63 0 012.34 1.62 1.23 1.23 0 01-.23 2 2.79 2.79 0 01-1.63.59l-11.72.08-10.07.07a.35.35 0 01-.42.32h.05l18.06-.13a23 23 0 005-.14c1.7-.39 2.56-1.85 1.4-3.11z"/><path fill="#424243" fill-rule="nonzero" d="M178.27 132.89c.88 0 1.77 0 2.65.13a.3.3 0 010-.33 28.2 28.2 0 00-2.91-.13h-.44c.17.1.33.21.49.32l.21.01zm7.79 1.22a18.92 18.92 0 013.38 1.55 1.89 1.89 0 011.06 1.17 1.47 1.47 0 01-.7 1.36 2 2 0 01-.89.23c-1 .12-2 .1-3 .12h-19.42a.3.3 0 01.27.31l10.07-.07h6.48c1.13 0 2.25.23 3.38.22h1.17a6.71 6.71 0 001.34-.31 2.39 2.39 0 001.39-.71c.37-.398.485-.97.3-1.48a2.21 2.21 0 00-.91-.91 15.05 15.05 0 00-8.21-2.83c.38.39 0 .3 1.49.59.95.184 1.887.438 2.8.76z"/><path fill="#424243" fill-rule="nonzero" d="M166.76 138.92a.3.3 0 00-.27-.31h-.1a.34.34 0 00-.35.23c.112.048.23.082.35.1l.37-.02zm10.24-6.01a.33.33 0 01.11-.33 29.3 29.3 0 00-3.55.34l.41.26a28.55 28.55 0 013.03-.27z"/><path fill="#424243" fill-rule="nonzero" d="M166.39 138.6h.06c-2.14-.5-.25-2.62.62-3.17a14.35 14.35 0 013.51-1.51 22.37 22.37 0 012.42-.58.3.3 0 010-.33 20.57 20.57 0 00-4.85 1.47 7.15 7.15 0 00-2.68 1.87 1.64 1.64 0 00.57 2.48.34.34 0 01.35-.23z"/><path fill="#424243" fill-rule="nonzero" d="M175.12 135.59c.15.4.89.22.74-.18a5 5 0 00-1.89-2.23l-.51.08a5.09 5.09 0 012 2.24l-2.08-2.23-.4.08a.36.36 0 00.12.11 4.51 4.51 0 012.02 2.13zm-1.62-2.7a.36.36 0 00-.5.12l.55-.09-.05-.03z"/><path fill="#424243" fill-rule="nonzero" d="M173 133.34l.4-.08-.09-.09.14.09.51-.08-.41-.26-.55.08a.3.3 0 000 .34z"/><path fill="#424243" fill-rule="nonzero" d="M173.45 133.26h-.05l2.08 2.23a5.09 5.09 0 00-2.03-2.23z"/><path fill="#424243" fill-rule="nonzero" d="M173.31 133.18l.09.09h.05zm5.84 2.06c.15.4.89.22.74-.18a4.91 4.91 0 00-1.81-2.18h-.61a5.12 5.12 0 012.06 2.26l-2.1-2.26H177a.32.32 0 00.16.2 4.52 4.52 0 011.99 2.16zm-1.62-2.7a.35.35 0 00-.43 0h.48-.05z"/><path fill="#424243" fill-rule="nonzero" d="M177 132.91h.42l-.07-.07.12.07h.61c-.16-.11-.32-.22-.49-.32h-.48a.33.33 0 00-.11.32z"/><path fill="#424243" fill-rule="nonzero" d="M177.46 132.9l2.1 2.26a5.12 5.12 0 00-2.1-2.26zm-.12-.07l.07.07zm5.66 2.45c.15.4.89.22.74-.18a4.66 4.66 0 00-1.46-1.9l-.72-.1a4.79 4.79 0 011.81 2.09l-2-2.11-.52-.05a.35.35 0 00.13.12 4.52 4.52 0 012.02 2.13zm-1.57-2.7a.36.36 0 00-.5.12l.84.09-.34-.21z"/><path fill="#424243" fill-rule="nonzero" d="M180.92 133l.52.05-.2-.22.37.24.72.1a6.6 6.6 0 00-.55-.41l-.84-.09a.3.3 0 00-.02.33zm.68.1h-.16l2 2.11a4.79 4.79 0 00-1.84-2.11z"/><path fill="#424243" fill-rule="nonzero" d="M181.24 132.86l.2.22h.16z"/><path fill="#AD5151" fill-rule="nonzero" d="M184.25 108l-1.67 7.41c-.09.37-.65.64-.28.73a.69.69 0 00.83-.51L185 108h-.75z"/><path fill="#464647" fill-rule="nonzero" d="M182.47 116.57a1.09 1.09 0 01-.26 0 .52.52 0 01-.41-.34.65.65 0 01.22-.63.88.88 0 00.17-.24l1.74-7.72h1.57l-2 8.13a1.09 1.09 0 01-1.03.8z"/><g fill="#424243" fill-rule="nonzero"><path d="M189.2 140.11h-26.46a3.51 3.51 0 01-3.43-3.51l-2.54-18.47a.91.91 0 01.91-1h36.59a.91.91 0 01.91 1l-2.54 18.47c-.05 1.95-.77 3.5-3.44 3.51zm-31-21.66s2.47 18.74 2.47 18.78c0 1 1.34 1.86 2.25 1.86H189a2.12 2.12 0 002-1.86l2.47-18.78H158.2z"/><path d="M165.49 139.66a.46.46 0 01-.45-.41l-2.23-21.08a.46.46 0 01.91-.1l2.23 21.08a.46.46 0 01-.41.5l-.05.01zm4.58 0a.46.46 0 01-.46-.42L168 118.15a.46.46 0 01.754-.384.45.45 0 01.156.314l1.56 21.08a.46.46 0 01-.42.49l.02.01zm4.12 0a.46.46 0 01-.46-.45l-.45-21.08a.46.46 0 01.91 0l.45 21.08a.46.46 0 01-.45.47v-.02zm13.05 0a.46.46 0 01-.41-.5l2.17-21.09a.46.46 0 01.91.1l-2.23 21.08a.46.46 0 01-.44.41zm-4.35 0a.46.46 0 01-.42-.49l1.53-21.08a.46.46 0 11.91.07l-1.56 21.08a.46.46 0 01-.46.42zm-4.12 0a.46.46 0 01-.45-.47l.45-21.08a.48.48 0 01.47-.45.46.46 0 01.45.47l-.45 21.08a.46.46 0 01-.47.45z"/><path d="M193.7 122.37h-35.56a.46.46 0 110-.91h35.56a.46.46 0 110 .91zm-.78 4.13h-33.58a.46.46 0 110-.91h33.58a.46.46 0 110 .91zm-.34 4.12h-32.91a.46.46 0 110-.91h32.92a.46.46 0 110 .91h-.01zm-.32 4.13h-32a.46.46 0 010-.91h32a.46.46 0 110 .91z"/></g><rect width="41.78" height="3.68" x="155.08" y="115.1" fill="#424243" fill-rule="nonzero" rx=".49"/><path fill="#EEEFEF" fill-rule="nonzero" d="M183.53 131.49l-14.04.05-.48-6.01h14.97z"/><path fill="#464647" fill-rule="nonzero" d="M169.49 131.84a.3.3 0 01-.3-.28l-.48-6a.3.3 0 01.3-.32h15a.3.3 0 01.3.32l-.45 6a.3.3 0 01-.3.28l-14 .05-.07-.05zm-.19-6.01l.43 5.41h13.48l.41-5.36-14.32-.05z"/><path fill="#AD5151" fill-rule="nonzero" d="M185.09 107.58a.69.69 0 00-.32-.76.71.71 0 00-.36-.09h-11.15a.69.69 0 00-.66.47l-3.11 9.32a.69.69 0 00.66.91c.376-.06.7-.299.87-.64l3-8.85 10.28.06h.31a.55.55 0 00.54-.42h-.06z"/><path fill="#464647" fill-rule="nonzero" d="M170.15 117.83a1.09 1.09 0 01-1-1.44l3.11-9.32a1.09 1.09 0 011-.75h11.15a1.09 1.09 0 011.08 1.35 1 1 0 01-.93.73h-.81l-9.49-.05-2.86 8.57a1.55 1.55 0 01-1.25.91zm14.25-10.7h-11.14a.29.29 0 00-.27.2l-3.11 9.32a.29.29 0 00.18.37h.09a.87.87 0 00.49-.37l3-9.13 10.92.06a.15.15 0 00.1-.11.29.29 0 00-.14-.32.32.32 0 00-.11-.02h-.01z"/><circle cx="170.35" cy="116.89" r="1.03" fill="#EEEFEF" fill-rule="nonzero"/><path fill="#464647" fill-rule="nonzero" d="M170.35 118.32a1.43 1.43 0 110-2.86 1.43 1.43 0 010 2.86zm0-2.06a.63.63 0 100 1.26.63.63 0 000-1.26z"/><path fill="#E5BA3F" fill-rule="nonzero" d="M261.31 78.25v-3.81c0-7.666-6.214-13.88-13.88-13.88-7.611 0-13.803 6.129-13.88 13.74v3.07l27.76.88z"/><path fill="#424243" fill-rule="nonzero" d="M261.81 78.75l-28.81-.9V74.3c.039-7.936 6.504-14.339 14.44-14.3 7.936.039 14.339 6.504 14.3 14.44l.07 4.31zM234 76.9l26.8.84v-3.3a13.4 13.4 0 00-26.8-.13v2.59z"/><path fill="#E5BA3F" fill-rule="nonzero" d="M261 80.87v14.3s-.22 3.93 2.62 3.71c0 0-5.79 12.33-13.65 2.51-.44-.55.33-18.45.33-18.45l10.7-2.07z"/><path fill="#424243" fill-rule="nonzero" d="M256.08 105.68c-2.2 0-4.39-1.34-6.5-4-.18-.23-.39-.48-.11-9.75.14-4.5.33-9 .33-9a.49.49 0 01.4-.46l10.7-2.07a.49.49 0 01.58.48V95.2a4.29 4.29 0 00.8 2.78c.346.325.82.475 1.29.41a.49.49 0 01.48.7c-.12.25-2.88 6-7.33 6.55a5.48 5.48 0 01-.64.04zm-5.69-4.53c2.08 2.58 4.17 3.76 6.22 3.52 3.09-.37 5.37-3.86 6.21-5.34a2.39 2.39 0 01-1.23-.65 5.16 5.16 0 01-1.09-3.52v-13.7l-9.74 1.89c-.27 6.51-.6 16.65-.37 17.8z"/><path fill="#ECA943" fill-rule="nonzero" d="M262.68 109.46v-1.76a13.33 13.33 0 00-.73-5 11.12 11.12 0 00-4.59-5.09 15.73 15.73 0 00-3.14-1.49 11.36 11.36 0 00-3.74-.31h-4c-1.82 0-3.68-.11-5.49 0-4 1.32-6.76 3.9-7.88 6.76a14.67 14.67 0 00-1 5.09v1.76H232v31.75h6.11v-4.13h18.43v4.12h6.11v-31.7h.03z"/><path fill="#424243" fill-rule="nonzero" d="M262.69 141.86h-6.11a.64.64 0 01-.64-.64v-3.48H238.8v3.49a.64.64 0 01-.64.64H232a.64.64 0 01-.64-.64v-31.77a.64.64 0 01.06-.26v-1.5a15.27 15.27 0 011.06-5.32c1.25-3.21 4.27-5.81 8.27-7.14h.17c1.31-.11 2.65-.08 3.95-.06h6.24a9.37 9.37 0 013.26.35 16.37 16.37 0 013.27 1.55 11.85 11.85 0 014.85 5.39 14 14 0 01.78 5.23v1.64a.65.65 0 010 .12v31.75a.64.64 0 01-.58.65zm-5.47-1.28h4.82v-31a.61.61 0 010-.11v-1.77a12.87 12.87 0 00-.68-4.75 10.59 10.59 0 00-4.36-4.78 15.09 15.09 0 00-3-1.43 8.24 8.24 0 00-2.83-.28h-10.03c-3.56 1.2-6.33 3.57-7.42 6.36a14 14 0 00-1 4.86v1.76a.64.64 0 01-.05.26v30.85h4.82v-3.49a.64.64 0 01.64-.64h18.43a.64.64 0 01.64.64l.02 3.52z"/><path fill="#F3D3C5" fill-rule="nonzero" d="M247.37 101.84a4.36 4.36 0 01-4.37-4.36v-4.21a4.36 4.36 0 014.36-4.36 4.36 4.36 0 014.36 4.36v4.21a4.36 4.36 0 01-4.35 4.36z"/><path fill="#444445" fill-rule="nonzero" d="M247.37 102.32a4.84 4.84 0 01-4.84-4.84v-4.21a4.84 4.84 0 019.68 0v4.21a4.84 4.84 0 01-4.84 4.84zm0-12.93a3.88 3.88 0 00-3.88 3.88v4.21a3.88 3.88 0 107.76 0v-4.21a3.88 3.88 0 00-3.88-3.88z"/><path fill="#424243" fill-rule="nonzero" d="M247.37 102.33a4.86 4.86 0 01-4.85-4.85v-4.21a4.85 4.85 0 019.7 0v4.21a4.86 4.86 0 01-4.85 4.85zm0-12.93a3.87 3.87 0 00-3.87 3.87v4.21a3.87 3.87 0 107.73 0v-4.21a3.87 3.87 0 00-3.86-3.87z"/><path fill="#E8A23F" fill-rule="nonzero" d="M256.6 136.37l.57-26.34c-3.6 3.93-9.17-.55-9.17-.55-4.48 4.15-9.94.76-9.94.76v26.12l18.54.01z"/><circle cx="235.82" cy="81.13" r="3.93" fill="#F3D3C5" fill-rule="nonzero"/><path fill="#444445" fill-rule="nonzero" d="M235.82 85.55a4.42 4.42 0 114.42-4.42 4.43 4.43 0 01-4.42 4.42zm0-7.86a3.44 3.44 0 100 6.88 3.44 3.44 0 000-6.88z"/><circle cx="258.42" cy="81.13" r="3.93" fill="#F3D3C5" fill-rule="nonzero"/><path fill="#444445" fill-rule="nonzero" d="M258.42 85.55a4.42 4.42 0 114.42-4.42 4.43 4.43 0 01-4.42 4.42zm0-7.86a3.44 3.44 0 100 6.88 3.44 3.44 0 000-6.88z"/><circle cx="235.82" cy="81.13" r="2.51" fill="#DBA999" fill-rule="nonzero"/><circle cx="258.42" cy="81.13" r="2.58" fill="#DBA999" fill-rule="nonzero"/><rect width="23.26" height="31.62" x="235.74" y="62.74" fill="#F3D3C5" fill-rule="nonzero" rx="11.63"/><path fill="#444445" fill-rule="nonzero" d="M247.37 94.84c-6.686-.006-12.104-5.424-12.11-12.11v-8.36c0-6.688 5.422-12.11 12.11-12.11s12.11 5.422 12.11 12.11v8.36c-.006 6.686-5.424 12.104-12.11 12.11zm0-31.62c-6.156.006-11.144 4.994-11.15 11.15v8.36c0 6.158 4.992 11.15 11.15 11.15s11.15-4.992 11.15-11.15v-8.36c-.006-6.156-4.994-11.144-11.15-11.15z"/><ellipse cx="254.2" cy="84.05" fill="#C37E77" fill-rule="nonzero" rx="1.93" ry="1.65"/><ellipse cx="241.11" cy="84.05" fill="#C37E77" fill-rule="nonzero" rx="1.93" ry="1.65"/><path fill="#404041" fill-rule="nonzero" d="M251.49 87.39a.31.31 0 00-.28.18 4.2 4.2 0 01-7.55 0 .31.31 0 00-.28-.18.31.31 0 00-.28.44 4.81 4.81 0 008.66 0 .31.31 0 00-.28-.44h.01zm-4.03-2.97a1.26 1.26 0 01-1.29-1 .165.165 0 11.33 0 .94.94 0 001 .74c.52 0 1-.34 1-.73a.17.17 0 01.17-.16.16.16 0 01.16.17 1.24 1.24 0 01-1.37.98z"/><circle cx="242.26" cy="78.93" r="1.04" fill="#404041" fill-rule="nonzero"/><circle cx="252.62" cy="78.93" r="1.04" fill="#404041" fill-rule="nonzero"/><path fill="#E5BA3F" fill-rule="nonzero" d="M260 77.48s-10.81-.87-11.25-7.64c0 0-5.57 7.53-17.25 7.64 0 0 2.24-.71 2.24-1.91s.16-5.51 1.53-7.64c1.7-2.65 7.21-9.61 17.25-6.28 10.47 3.47 8.68 15.83 8.68 15.83a2.79 2.79 0 01-1.2 0z"/><path fill="#424243" fill-rule="nonzero" d="M260.75 78.1a7.42 7.42 0 01-.8-.05 22.4 22.4 0 01-5.61-1.32c-3.28-1.27-5.31-3.18-5.95-5.6a20.9 20.9 0 01-3.56 3 24.27 24.27 0 01-13.32 4 .57.57 0 01-.18-1.12c.74-.24 1.84-.83 1.84-1.36 0-.53 0-5.5 1.62-8a17.47 17.47 0 015.69-5.65 14.39 14.39 0 0112.22-.94 12.8 12.8 0 018.64 9.63 19.74 19.74 0 01.42 6.83.57.57 0 01-.31.43 1.71 1.71 0 01-.7.15zm-12-8.84h.16a.57.57 0 01.41.51c.17 2.56 2 4.53 5.4 5.85a21.6 21.6 0 005.32 1.25h.62a19.24 19.24 0 00-.46-6 11.55 11.55 0 00-7.88-8.78c-9.47-3.14-14.75 3.18-16.59 6-1.14 1.77-1.44 5.44-1.44 7.33a1.79 1.79 0 01-.52 1.21 21.41 21.41 0 0014.5-7.29.57.57 0 01.49-.07l-.01-.01z"/><path fill="#424243" fill-rule="nonzero" d="M260 78.06c-.43 0-10-.88-11.57-6.91a20.9 20.9 0 01-3.56 3 24.27 24.27 0 01-13.32 4 .58.58 0 01-.56-.44.57.57 0 01.31-.65s3.94-1.92 5.16-5.66a.572.572 0 011.09.35 10.84 10.84 0 01-3.85 5.15 21.44 21.44 0 0014.64-7.3.57.57 0 011 .3c.4 6.2 10.62 7.1 10.72 7.11a.57.57 0 010 1.14l-.06-.09z"/><path fill="#E5BA3F" fill-rule="nonzero" d="M233.91 84.69v10.92s-4.91 3.17-2.07 8.08c2.84 4.91 11.14 2.73 10.92-4.26l.16-5.24s-6.39-2.32-7.1-9c0 .03-.6.26-1.91-.5z"/><path fill="#424243" fill-rule="nonzero" d="M236.5 106.84a5.8 5.8 0 01-5.09-2.9c-2.67-4.62 1-7.84 2-8.58V83.83l.74.43c.435.32.96.49 1.5.49l.63-.33v.74c.67 6.25 6.72 8.54 6.78 8.56l.33.12-.17 5.58a6.9 6.9 0 01-4.94 7.15 6.57 6.57 0 01-1.78.27zm-2.1-21.35v10.39l-.23.14c-.18.12-4.48 3-1.92 7.42a4.9 4.9 0 005.77 2.19 5.94 5.94 0 004.23-6.19l.15-4.92c-1.33-.59-6.18-3.12-7-8.77a3.34 3.34 0 01-1-.27v.01z"/><path fill="#F0F1F1" fill-rule="nonzero" d="M248.79 105.19h7.53v4h-7.53z"/><path fill="#424243" fill-rule="nonzero" d="M256.32 109.51h-7.53a.33.33 0 01-.33-.33v-4a.33.33 0 01.33-.33h7.53a.33.33 0 01.33.33v4a.33.33 0 01-.33.33zm-7.2-.66H256v-3.34h-6.87l-.01 3.34z"/><path d="M249.49 106.12h2.02v2.21h-2.02zM252.01 106.09h3.19v1h-3.19z" fill="#E8A23F" fill-rule="nonzero" opacity=".42"/><path d="M252.01 106.83h3.19v1h-3.19z" fill="#E8A23F" fill-rule="nonzero" opacity=".42"/><path d="M252.01 107.57h3.19v1h-3.19z" fill="#E8A23F" fill-rule="nonzero" opacity=".42"/><path fill="#424243" fill-rule="nonzero" d="M237.94 138.1a.57.57 0 01-.57-.57v-26.85a.575.575 0 111.15 0v26.85a.57.57 0 01-.58.57zm18.79.16a.57.57 0 01-.57-.57v-26.85a.575.575 0 111.15 0v26.85a.57.57 0 01-.58.57z"/><ellipse cx="234.73" cy="140.01" fill="#DDB99F" fill-rule="nonzero" rx="4.47" ry="4.32"/><path fill="#D6AE99" fill-rule="nonzero" d="M233.49 143.14a4.53 4.53 0 003.74-7 4.52 4.52 0 11-6.39 6.17 4.47 4.47 0 002.65.83z"/><path fill="#424243" fill-rule="nonzero" d="M229.91 140a4.83 4.83 0 114.83 4.68 4.76 4.76 0 01-4.83-4.68zm.72 0a4.11 4.11 0 104.11-4 4 4 0 00-4.11 4z"/><ellipse cx="259.6" cy="140.61" fill="#DDB99F" fill-rule="nonzero" rx="4.47" ry="4.32"/><path fill="#D6AE99" fill-rule="nonzero" d="M258.36 143.74a4.53 4.53 0 003.74-7 4.52 4.52 0 11-6.39 6.17 4.47 4.47 0 002.65.83z"/><path fill="#424243" fill-rule="nonzero" d="M254.77 140.61a4.83 4.83 0 114.83 4.68 4.76 4.76 0 01-4.83-4.68zm.72 0a4.11 4.11 0 104.11-4 4 4 0 00-4.11 4z"/><path d="M195 201.38h-70a1.18 1.18 0 01-1.18-1.18A1.18 1.18 0 01125 199h70a1.18 1.18 0 011.18 1.18 1.18 1.18 0 01-1.18 1.2zM201.63 201.38h-1.73a1.18 1.18 0 01-1.18-1.18 1.18 1.18 0 011.18-1.2h1.73c.652 0 1.18.528 1.18 1.18a1.18 1.18 0 01-1.18 1.2zM269.14 209.53H201a1.26 1.26 0 01-1.26-1.26A1.26 1.26 0 01201 207h68.16c.696 0 1.26.564 1.26 1.26a1.26 1.26 0 01-1.28 1.27zM277.63 205.61h-3.15a1.26 1.26 0 110-2.52h3.15a1.26 1.26 0 010 2.52z" fill="#484849" fill-rule="nonzero" opacity=".48"/><path fill="#9ED1E3" fill-rule="nonzero" d="M214.8 102.27h5.8l4.97 37.47-22.67-.1z"/><path fill="#424243" fill-rule="nonzero" d="M225.57 140.5l-22.67-.1a.76.76 0 01-.72-1l11.9-37.4a.76.76 0 01.72-.53h5.79c.38.002.7.284.75.66l5 37.47a.76.76 0 01-.75.86l-.02.04zm-21.63-1.61l20.76.09-4.77-35.98h-4.57l-11.42 35.89z"/><path fill="#F0F1F1" fill-rule="nonzero" d="M131.75 139.74h149.57V194H131.75z"/><path fill="#A1C0C9" fill-rule="nonzero" d="M131.75 158.55h149.57v16.65H131.75z"/><path fill="#424243" fill-rule="nonzero" d="M281.32 194.76H131.75a.76.76 0 01-.75-.76v-54.26c0-.42.34-.76.76-.76h149.56c.42 0 .76.34.76.76V194c0 .42-.34.76-.76.76zm-148.81-1.52h148.05V140.5H132.51v52.74z"/><path fill="#6D6D6D" fill-rule="nonzero" d="M212.76 127.53h43.31v12.21h-43.31z"/><path fill="#424243" fill-rule="nonzero" d="M256.07 140.5h-43.31a.76.76 0 01-.76-.76v-12.21c0-.42.34-.76.76-.76h43.31c.42 0 .76.34.76.76v12.21c0 .42-.34.76-.76.76zm-42.55-1.5h41.79v-10.71h-41.79V139z"/><path fill="#6D6D6D" fill-rule="nonzero" d="M250.73 117.99h-32.64l-5.33 9.63h43.31z"/><path fill="#424243" fill-rule="nonzero" d="M256.07 128.38h-43.31a.76.76 0 01-.66-1.13l5.34-9.63a.76.76 0 01.66-.39h32.64a.76.76 0 01.66.39l5.34 9.63a.76.76 0 01-.66 1.13h-.01zm-42-1.52h40.73l-4.49-8.11h-31.77l-4.47 8.11z"/><path fill="#6D6D6D" fill-rule="nonzero" d="M220.88 107.9h18.19v6.76h-18.19z"/><path fill="#424243" fill-rule="nonzero" d="M239.07 115.42h-18.19a.76.76 0 01-.76-.76v-6.76c0-.42.34-.76.76-.76h18.19c.42 0 .76.34.76.76v6.76c0 .42-.34.76-.76.76zm-17.43-1.52h16.67v-5.24h-16.67v5.24z"/><path fill="#F0F1F1" fill-rule="nonzero" d="M235.63 112h-11.31a.76.76 0 010-1.52h11.32a.76.76 0 010 1.52h-.01z"/><path fill="#6D6D6D" fill-rule="nonzero" d="M227.86 114.66h4.23v3.33h-4.23z"/><path fill="#424243" fill-rule="nonzero" d="M232.09 118.75h-4.23a.76.76 0 01-.76-.76v-3.33c0-.42.34-.76.76-.76h4.23c.42 0 .76.34.76.76V118a.76.76 0 01-.76.75zm-3.47-1.52h2.71v-1.81h-2.71v1.81z"/><path fill="#6D6D6D" fill-rule="nonzero" d="M127.36 138.98h158.35v6.68H127.36z"/><path fill="#424243" fill-rule="nonzero" d="M285.71 146.26H127.36a.6.6 0 01-.6-.6V139a.6.6 0 01.6-.6h158.35a.6.6 0 01.6.6v6.68a.6.6 0 01-.6.58zM128 145.06h157.11v-5.48H128v5.48z"/><g transform="translate(0 2)" fill-rule="nonzero"><path fill="#FFF" d="M196.73 93.48a4.45 4.45 0 00-8.89.23s0 4.65-2.49 7.17a6.72 6.72 0 01-5.05 1.79c-2.57 0-5.1-.78-6.21-6.46l-.19-1a24.61 24.61 0 00-1.3-5.59c-1.57-4.3-5.46-8.19-11-10.18-.68-.17-1.36-.31-2-.43V77.7h-13.43v1.36c-1.28.22-2 .42-2 .42h-.07a20.64 20.64 0 00-10.69 7.92c-1.7 2.65-2.05 5.78-2.16 8.86-.18 4.83-.4 9.78-.36 14.61 0 2.86 2.37 3.74 3.53 4.09 1.8.336 3.621.557 5.45.66v16.69H167V103c2.09 4.67 6 8.58 13.32 8.58a15.33 15.33 0 0011.44-4.49c5.13-5.31 4.98-13.28 4.97-13.61z"/><path fill="#424243" d="M167 132.94h-27.16a.59.59 0 01-.59-.59v-16.18h-.38a25.28 25.28 0 01-4.65-.6c-2.61-.79-3.94-2.36-4-4.65 0-4.15.13-8.41.29-12.53 0-.707.027-1.41.08-2.11.11-3.1.47-6.36 2.26-9.15a21.09 21.09 0 0111-8.16h.06s.6-.16 1.59-.34v-.93a.59.59 0 01.59-.59h13.41a.59.59 0 01.59.59v.86c.55.11 1.07.22 1.58.35h.05c5.52 2 9.68 5.81 11.4 10.53a25.37 25.37 0 011.32 5.56.56.56 0 010 .1l.19 1c1.08 5.52 3.47 6 5.63 6a6.17 6.17 0 004.63-1.61c2.26-2.29 2.32-6.58 2.32-6.76a5.036 5.036 0 1110.07-.24c0 .37.16 8.55-5.16 14a15.9 15.9 0 01-11.86 4.67c-5.69 0-10-2.28-12.73-6.79v27a.59.59 0 01-.59.59l.06-.02zm-26.54-1.2h25.95V103a.59.59 0 011.13-.24c2.45 5.46 6.75 8.23 12.78 8.23a14.76 14.76 0 0011-4.31c5-5.12 4.84-12.84 4.83-13.16a3.861 3.861 0 10-7.72.2c0 .5-.12 5-2.66 7.57a7.27 7.27 0 01-5.47 2c-2.69 0-5.6-.82-6.79-6.94l-.16-.82a.56.56 0 01-.05-.18 24.13 24.13 0 00-1.3-5.49c-1.6-4.38-5.48-8-10.66-9.81-.62-.16-1.26-.29-2-.42a.59.59 0 01-.48-.58v-.76h-12.1v.77a.59.59 0 01-.49.58c-1.12.19-1.83.37-2 .4a19.93 19.93 0 00-10.41 7.69c-1.64 2.55-2 5.62-2.07 8.56 0 .7-.027 1.403-.08 2.11-.16 4.11-.32 8.35-.28 12.47 0 2.32 1.79 3.13 3.12 3.53a25.15 25.15 0 004.45.6h.69c.24 0 .79.07.79.63l-.02 16.11z"/><path fill="#949494" d="M152.81 130.58h13.36v74.14h-11.66v-58.23h-3.08v58.23h-11.66v-74.14z"/><path fill="#444445" d="M166.17 205.28h-11.66a.55.55 0 01-.55-.55V147h-2v57.68a.55.55 0 01-.55.55h-11.64a.55.55 0 01-.55-.55v-74.1a.55.55 0 01.55-.55h26.39a.55.55 0 01.55.55v74.14a.55.55 0 01-.54.56zm-11.11-1.11h10.55v-73h-25.28v73h10.55v-57.68a.55.55 0 01.55-.55h3.08a.55.55 0 01.55.55v57.68z"/><path fill="#404041" d="M166.18 138.2H139.5v-7.41h26.68z" opacity=".49"/><path fill="#EDC3B4" d="M153.21 87.86a6.11 6.11 0 006.11-6.11v-5.9a6.11 6.11 0 00-6.11-6.11 6.11 6.11 0 00-6.11 6.11v5.9a6.11 6.11 0 006.11 6.11z"/><path fill="#424243" d="M153.21 88.16a6.41 6.41 0 01-6.4-6.4v-5.9a6.405 6.405 0 1112.81 0v5.9a6.41 6.41 0 01-6.41 6.4zm0-18.12a5.82 5.82 0 00-5.81 5.81v5.9a5.815 5.815 0 1011.63 0v-5.9a5.82 5.82 0 00-5.82-5.85v.04z"/><path fill="#543E27" d="M177 210.6h-22.22a.7.7 0 01-.7-.7V205a.7.7 0 01.7-.7h17.54a5.38 5.38 0 015.38 5.38v.22a.7.7 0 01-.7.7z"/><path fill="#424243" d="M177 211.16h-22.22a1.26 1.26 0 01-1.26-1.26V205c0-.696.564-1.26 1.26-1.26h17.54a5.94 5.94 0 015.93 5.93v.23a1.26 1.26 0 01-1.25 1.26zm-22.21-6.3a.14.14 0 00-.14.14v4.9c0 .077.063.14.14.14H177a.14.14 0 00.14-.14v-.23a4.83 4.83 0 00-4.82-4.82l-17.53.01z"/><path fill="#543E27" d="M132.48 204.3h18.3a.71.71 0 01.71.71v4.88a.71.71 0 01-.71.71h-23.07a.71.71 0 01-.71-.71v-.11a5.48 5.48 0 015.48-5.48z"/><path fill="#424243" d="M150.78 211.16h-23.07a1.27 1.27 0 01-1.27-1.27v-.11a6 6 0 016-6h18.3A1.27 1.27 0 01152 205v4.88a1.27 1.27 0 01-1.22 1.28zm-18.3-6.3a4.93 4.93 0 00-4.92 4.92v.11c0 .088.072.16.16.16h23.06a.16.16 0 00.16-.16V205a.16.16 0 00-.16-.16l-18.3.02z"/><ellipse cx="189.88" cy="95.56" fill="#F3D3C5" rx="7.3" ry="7.07"/><path fill="#EDC3B4" d="M187.86 100.68A7.4 7.4 0 00194 89.17a7.38 7.38 0 11-10.45 10.09 7.3 7.3 0 004.31 1.42z"/><path fill="#424243" d="M182 95.56a7.89 7.89 0 117.89 7.66 7.78 7.78 0 01-7.89-7.66zm1.18 0a6.72 6.72 0 106.71-6.48 6.6 6.6 0 00-6.72 6.48h.01z"/><path fill="#EDC3B4" d="M168.86 67.45c-.18 5.4-6.76 9.56-14.65 9.42h-.27c-7.84-.14-14.31-4.49-14.5-9.84l-.74-20.77c-.21-6 6.56-11 15.19-11h.3c8.69 0 15.59 5.12 15.39 11.23l-.72 20.96z"/><path fill="#F3D3C5" d="M157.06 35.43l-.12 41.31c6.61-.73 11.75-4.52 11.92-9.29l.72-21c.18-5.45-5.22-10.02-12.52-11.02z"/><path fill="#424243" d="M154.26 77.09h-.32a19.14 19.14 0 01-10.26-3c-2.81-1.89-4.41-4.4-4.51-7.07l-.75-20.77c-.23-6.16 6.66-11.25 15.41-11.25h.36a19.14 19.14 0 0111.24 3.42c3 2.19 4.54 5.06 4.44 8.08l-.73 21c-.2 5.5-6.88 9.72-14.88 9.59zm-.43-41.59c-8.42 0-15.05 4.88-14.85 10.75l.73 20.75c.09 2.53 1.62 4.91 4.29 6.72a18.52 18.52 0 009.94 2.9h.32c7.71.12 14.14-3.94 14.32-9.2l.7-21c.1-2.85-1.4-5.58-4.23-7.66a18.51 18.51 0 00-10.86-3.3h-.35l-.01.04z"/><ellipse cx="164.3" cy="59.88" fill="#C27E77" rx="2.72" ry="2.33"/><ellipse cx="149.26" cy="59.88" fill="#C27E77" rx="2.72" ry="2.33"/><path fill="#424243" d="M157.32 61.29a1.61 1.61 0 01-1-.36.28.28 0 01.36-.43 1.15 1.15 0 001.24.08c.357-.203.57-.59.55-1a1.43 1.43 0 00-.73-1 1.9 1.9 0 00-.59-.22h-.23v-2.18a.28.28 0 01.28-.28.28.28 0 01.28.28v1.61c.18.05.355.12.52.21a2 2 0 011 1.46 1.66 1.66 0 01-.83 1.59 1.73 1.73 0 01-.85.24z"/><path fill="#EDC3B4" d="M139.84 53.7s-4.54 0-4.55 3.57c-.01 3.57 4.53 3.56 4.53 3.56l.02-7.13z"/><path fill="#424243" d="M138.3 60.16a3.45 3.45 0 01-1.82-.8 2.69 2.69 0 01-.79-2 3 3 0 012.23-3 4.72 4.72 0 01.68-.08.6.6 0 00.58-.43 1.69 1.69 0 00.05-.56.33.33 0 000-.18c-.16-.23-1 0-1.18.08a5.33 5.33 0 00-1 .32 3.9 3.9 0 00-2.49 3.83 3.76 3.76 0 001.15 2.85 5 5 0 003.23 1.16c.33 0 .62.17.62-.14v-.45a.6.6 0 00-.59-.58l-.67-.02z"/><path fill="#DBA999" d="M138.84 55a2.15 2.15 0 00-2.14 2.14 2 2 0 002.13 2.06l.01-4.2z"/><path fill="#424243" d="M159.5 33.13a9.53 9.53 0 017.06 4c.368.56.702 1.14 1 1.74a75.25 75.25 0 014.26 10.32c-4.67.18-9.44.23-13.89-1.19-4.14-1.32-7.77-3.83-11.33-6.3-3.23 3.24-6.2 10.2-5.67 14.75-1.9-.78-2.77-5-3.11-7a20 20 0 01.85-9.32 7.88 7.88 0 011.83-3.36 3.34 3.34 0 013.54-.84 5.17 5.17 0 013.63-2.83c3.33-.98 8.33-.22 11.83.03z"/><circle cx="150.654" cy="53.962" r="1.08" fill="#424243" transform="rotate(-89.85 150.654 53.962)"/><circle cx="163.137" cy="53.952" r="1.08" fill="#424243" transform="rotate(-89.85 163.137 53.952)"/><path fill="#424243" d="M151.87 52.45h-2.77a.25.25 0 01-.25-.25.75.75 0 01.75-.75h1.77a.75.75 0 01.75.75.25.25 0 01-.25.25zm12.8-.06l-2.77-.15a.25.25 0 01-.24-.26.75.75 0 01.79-.71l1.77.1a.75.75 0 01.71.79.25.25 0 01-.26.23z"/><path fill="#404041" d="M161.21 62.29h-8.53a2.53 2.53 0 00-2.53 2.53v9.53a2.53 2.53 0 002.53 2.53h8.53a2.53 2.53 0 002.53-2.53v-9.53a2.53 2.53 0 00-2.53-2.53zm.45 7.08a2.53 2.53 0 01-2.53 2.53h-4.38a2.53 2.53 0 01-2.53-2.53V68a2.53 2.53 0 012.53-2.53h4.38a2.53 2.53 0 012.53 2.53v1.37z"/><circle cx="149.07" cy="53.54" r="5.67" fill="#FFF" opacity=".45"/><path fill="#424243" d="M149.07 59.38a5.85 5.85 0 110-11.7 5.85 5.85 0 010 11.7zm0-11.44a5.6 5.6 0 100 11.2 5.6 5.6 0 000-11.2z"/><circle cx="165.79" cy="53.54" r="5.67" fill="#FFF" opacity=".45"/><path fill="#424243" d="M165.79 59.38a5.85 5.85 0 110-11.7 5.85 5.85 0 010 11.7zm0-11.44a5.6 5.6 0 100 11.2 5.6 5.6 0 000-11.2z"/><path fill="#424243" d="M159.88 53.7a.48.48 0 01-.31-.12 3.1 3.1 0 00-4.24 0 .481.481 0 01-.66-.7 4 4 0 015.54 0 .48.48 0 01-.31.84l-.02-.02z"/><path fill="#FFF" d="M157 71a1.63 1.63 0 01-1.62-1.62V68a1.63 1.63 0 011.62-1.6 1.63 1.63 0 011.65 1.6v1.39A1.63 1.63 0 01157 71z"/><path fill="#E9B13D" d="M170 79.77a.55.55 0 010 .31c.05 1.71-.93 2.3-2.35 2.42v10.85h3.1v-3a.61.61 0 011.21 0v3h3.15V88.8a.61.61 0 011.21 0v4.55h2.9V82.52h-3.78a.61.61 0 010-1.21h4.11a.58.58 0 01.15 0h.12c.84-.08.92-.79 1-1.41-.2-3.93-8.94-3.43-11.78-3.56-1.18-.06-2.33-.05-3.48 0 1.82.6 3.8 1.66 4.44 3.43z"/><path fill="#424243" d="M182.07 80.07a.62.62 0 010 .11v-.11zm0-.02a.64.64 0 00-.61-.73 2.49 2.49 0 010 .59 2.78 2.78 0 01-.1.52.58.58 0 00.67-.31.62.62 0 00.04-.07z"/><path fill="#424243" d="M163.62 75.79a42.81 42.81 0 016.8 0c1.773.12 3.543.267 5.31.44 1.51.14 3 .14 4.44 1.11a3 3 0 011.28 2 .64.64 0 01.61.73.56.56 0 000-.14c-.19-4.33-5.36-4.2-8.57-4.48a51.46 51.46 0 00-12.43.14 12.76 12.76 0 012.56.2zm17.75 4.69c-.25.9-.31 1.34-1.22 1.42a.6.6 0 01-.31.56v.07l.61-.61v.5c1-.28 1.35-1 1.59-2.24a.58.58 0 01-.67.3zm-1.52 12.87V94h-3.5a.61.61 0 01-1.21 0H172a.61.61 0 01-1.21 0h-3.1a.62.62 0 01-.61.61h12.79a.62.62 0 00.61-.61V82.45c-.2.054-.404.09-.61.11l-.02 10.79z"/><path fill="#424243" d="M179.85 82.52c.206-.02.41-.056.61-.11v-.5l-.61.61zm1.03-2.61c-.1.62-.18 1.33-1 1.41h-.12a.57.57 0 01.43.56c.91-.08 1-.52 1.22-1.42a.58.58 0 01-.53-.55z"/><path fill="#424243" d="M179.24 82.52v10.83h.61v-10.9a.59.59 0 01-.27.07h-.34zm0 11.48l.61-.61h-.61zm-2.9-.65V94h2.9v-.61z"/><path fill="#424243" d="M179.85 94v-.61l-.61.61zm.33-16.64c-1.4-1-2.94-1-4.44-1.11a240.723 240.723 0 00-5.31-.44 42.81 42.81 0 00-6.8 0c.483.085.96.199 1.43.34l.57.19c1.15-.05 2.3-.05 3.48 0 2.84.14 11.58-.37 11.78 3.56v-.14a.5.5 0 01.56-.43 3 3 0 00-1.27-1.97z"/><path fill="#424243" d="M180.9 79.75v.14a.58.58 0 00.5.56c.05-.17.083-.344.1-.52a2.49 2.49 0 000-.59.5.5 0 00-.6.41zm-13.24 13.6V94h3.1v-.61zm4.34 0V94h3.15v-.61z"/><path fill="#F0F1F1" d="M159.88 76.87a10.91 10.91 0 00-4.62 1.6c-.25.19-.52.13-.78.33a5.12 5.12 0 00-.73.7 1.25 1.25 0 00-.28.45.93.93 0 00.4 1c.53.38 2.18.1 2.18 1v11.4h8.47l-3.75-16.54c-.32.01-.62.03-.89.06zm5.87 16.43a.53.53 0 00-.4.08 1 1 0 01.4-.08zm-.87-3.91c.24 1 1 2.77.88 3.86h.7V81.91a.62.62 0 01.61-.61c.78 0 1.79.2 1.74-1.27-.83-2.2-4.15-3.06-6.77-3.21l1.57 6.91 1.27 5.66zm.87 3.91v.05h.1a.16.16 0 000-.05h-.1zm-4.97-16.49l3.75 16.54h.62L161.4 76.8z"/><path fill="#F0F1F1" d="M165.82 93.3a.16.16 0 010 .05h.6l-.6-.05zm-.07-.03c.12-1.08-.64-2.81-.88-3.86l-1.28-5.66-1.59-6.92h-.63l3.76 16.55h.19a.53.53 0 01.43-.11zm0 0h.07-.07z"/><path fill="#F0F1F1" d="M165.35 93.35h.4v-.05a1 1 0 00-.4.05z"/><path fill="#424243" d="M164.71 94.12v-.16h-9.22V82.52h-.61V94a.62.62 0 00.61.61h9.84a.61.61 0 01-.62-.49zm-9.86-12.21v.59h.61z"/><path fill="#424243" d="M154.43 81.91a1.52 1.52 0 01-1.39-2 4.9 4.9 0 011.91-2 11.92 11.92 0 015.71-1.75.59.59 0 01.42-.62 12.74 12.74 0 00-4.67.95c-1.51.62-4.22 2-4.06 4 .12 1.48 1.28 1.87 2.49 1.95v-.59l-.41.06z"/><path fill="#424243" d="M154.85 81.91l.61.61v-.61zm12.71-3.96a5.24 5.24 0 011.61 1.43.64.64 0 01.85.55v.14a.55.55 0 000-.31c-.63-1.78-2.62-2.82-4.37-3.44-.62 0-1.24.043-1.86.13a11.33 11.33 0 013.77 1.5zm1.88 2.55a1.42 1.42 0 01-1.36 1.41h-.42v.58c1.42-.12 2.4-.71 2.35-2.42a.58.58 0 01-.57.43z"/><path fill="#424243" d="M167.06 82.52h.61v-.58z"/><path fill="#424243" d="M167.06 82.52v10.83h.61V82.49zm0-.61v.61l.61-.61zm2.35-1.98a1.9 1.9 0 010 .57c.27.01.51-.17.58-.43v-.14a.64.64 0 00-.85-.55s.07.09.1.14c.074.129.132.266.17.41zM161.84 76v.07h.06z"/><path fill="#424243" d="M160.66 76.2h.59l.54-.09v-.07.06l1.5-.25h.27a12.76 12.76 0 00-2.54-.22.59.59 0 00-.36.57zm7 17.8h-3v.16a.61.61 0 00.59.45h1.76a.62.62 0 00.65-.61z"/><path fill="#424243" d="M163.76 76.46c.62-.06 1.24-.103 1.86-.13l-.57-.19a12.58 12.58 0 00-1.43-.34h-.27l-1.5.25v.14a12.71 12.71 0 011.91.27zm3.3 16.89V94h.61v-.61z"/><path fill="#424243" d="M161.89 76.2v-.14h-.06l-.07.12zm-.09-.13l-.54.09h.47l.07-.09zm-5.74 17.28V94h8.61l-.14-.61zm-.61.65h.61l-.61-.61z"/><path fill="#424243" d="M155.45 93.35l.61.61v-.61z"/><path fill="#424243" d="M156.06 81.91c0-1-1.7-.38-2.11-1.15a1.27 1.27 0 01.1-1.21 4.18 4.18 0 011.21-1.07 10.91 10.91 0 014.62-1.6c.27 0 .58-.05.9-.06l-.11-.49a.65.65 0 010-.12 11.92 11.92 0 00-5.67 1.74 4.9 4.9 0 00-1.91 2 1.52 1.52 0 001.39 2h1v11.4h.61l-.03-11.44zm12.74-1.98v.16a.6.6 0 00.61.41 1.9 1.9 0 000-.57 1.69 1.69 0 00-.15-.41s-.07-.09-.1-.14a.51.51 0 00-.36.55zm-2.95 13.42h-.1c-.03.56.2.2.1 0z"/><path fill="#424243" d="M168.8 80v-.11a.51.51 0 01.37-.55 5.24 5.24 0 00-1.61-1.43 11.33 11.33 0 00-3.8-1.49c-.59.06-1.18.13-1.77.21v.16c2.66.21 6.01 1.05 6.81 3.21zm-1.74 1.91h1a1.42 1.42 0 001.36-1.41.6.6 0 01-.61-.41v-.05c0 1.46-1 1.27-1.74 1.27a.62.62 0 00-.61.61v11.42h.61V81.91h-.01zm-2.53 11.44l.14.61h.62l-.14-.61zm-3.75-16.54h.62l-.15-.65h-.59a.65.65 0 000 .12l.12.53z"/><path fill="#424243" d="M161.89 76.2l.11.46c.59-.08 1.18-.15 1.77-.21a12.71 12.71 0 00-1.88-.25z"/><path fill="#424243" d="M161.73 76.19l-.31.55.58-.08-.11-.46z"/><path fill="#424243" d="M162 76.83v-.16l-.58.08.31-.55h-.47l.15.65.59-.02zm3.85 16.52c.09.2-.13.55-.1 0h-.59l.14.61h1.16v-.61h-.61z"/><path fill="#424243" d="M166.6 93.35h-.15V94l.61-.61zm-.15.65h.61v-.61zm9.01-12.7a.61.61 0 000 1.21h3.78v-.61a.59.59 0 01.48-.58.58.58 0 00-.15 0l-4.11-.02zm4.39 1.15a.6.6 0 00.31-.56h-.31v.56z"/><path fill="#424243" d="M179.72 81.33a.59.59 0 00-.48.58v.61h.33a.59.59 0 00.27-.07v-.54h.31a.57.57 0 00-.43-.58zm-8.95 9.06v3H172v-3a.615.615 0 00-1.23 0zm0 3.61a.615.615 0 001.23 0h-1.23z"/><path fill="#424243" d="M171.37 93.35h-.61V94h.61zm.48 0h-.47V94h.62v-.61zm3.28-4.55v4.55h1.22V88.8a.61.61 0 10-1.22 0zm0 5.2a.61.61 0 001.21 0h-1.21zm.61-.65h-.61V94h.61zm0 0V94h.61v-.61z"/><path fill="#D8B071" d="M154.8 100.87a4.75 4.75 0 001.18 2.26l2.32.44.83-1.16a7.78 7.78 0 00.45-1.41 28 28 0 00.8-5.34 33.59 33.59 0 00-.21-6 7.28 7.28 0 01-2.25 3c-.54.4-1.11-.64-.58-1a7.06 7.06 0 002.37-3.9.55.55 0 01.13-.24c-.24-1.36-.55-2.71-.92-4l-.09-.31a7.68 7.68 0 01-2.51 3.65c-.54.4-1.11-.64-.58-1a7.06 7.06 0 002.37-3.9.5.5 0 01.23-.32 44.58 44.58 0 00-1.69-4.45 7.76 7.76 0 01-2.55 3.78c-.54.4-1.11-.64-.58-1a7.05 7.05 0 002.37-3.9.56.56 0 01.12-.23 35 35 0 00-1.89-3.39 22.43 22.43 0 00-3.75-4.65c-1.2-1.07-5.18-3-5 .42l3.07 10.62c2.08 7.23 3.96 14.74 6.36 22.03z"/><path fill="#424243" d="M144.29 68.11a.62.62 0 000 .07.71.71 0 010-.15v.08zm.71.56l-.16-.55a2.26 2.26 0 010-.57.49.49 0 00-.51.45.71.71 0 000 .15.55.55 0 00.67.52z"/><path fill="#424243" d="M159.78 103.59c.89-1.43 1.13-3.57 1.38-5.3a32.26 32.26 0 00.17-7.37 45.17 45.17 0 00-3.45-13.55c-1.81-4.29-4.6-9.39-8.41-11.73-2.08-1.28-5.29-.78-5.18 2.36a.49.49 0 01.51-.45c.14-1.7 2.21-2.45 3.49-1.91a11.18 11.18 0 013.95 3.24 32.14 32.14 0 014.26 6.68.56.56 0 01.39.7v.09a45.79 45.79 0 012 5.19.55.55 0 01.25.63v.08c.07.22.14.43.2.65a44.06 44.06 0 011 4.44.56.56 0 01.39.7c-.05.2-.11.4-.17.6a32.19 32.19 0 010 10.25 14.24 14.24 0 01-1.21 4.39 2.1 2.1 0 01-3.25.66 5.46 5.46 0 01-1.64-2.55l-5.08-17.6L145 68.67a.55.55 0 01-.66-.49.6.6 0 000 .08l7.83 27.12c.67 2.33 1.13 5.32 2.33 7.44 1.32 2.37 3.86 3.04 5.28.77z"/><path fill="#424243" d="M158.92 83.44c.37 1.33.68 2.68.92 4a.47.47 0 01.49-.13 44.06 44.06 0 00-1-4.44c-.06-.22-.14-.43-.2-.65-.08.29-.17.58-.27.87l.06.35zm1.45 12.23a28 28 0 01-.8 5.34 7.78 7.78 0 01-.45 1.41l-.83 1.16-2.32-.44a4.75 4.75 0 01-1.18-2.26c-2.4-7.29-4.28-14.8-6.41-22.18l-3.07-10.62v.06a.47.47 0 01-.36.53l4.37 15.12 5.08 17.6a5.46 5.46 0 001.64 2.55 2.1 2.1 0 003.25-.66 14.24 14.24 0 001.21-4.39 32.19 32.19 0 000-10.25c-.11.34-.236.673-.38 1a33.59 33.59 0 01.25 6.03z"/><path fill="#424243" d="M145 68.67a.47.47 0 00.36-.53v-.15a.53.53 0 00-.49-.43 2.26 2.26 0 000 .57l.13.54zm13.34 12.85a.51.51 0 01.54 0 45.79 45.79 0 00-2-5.19c-.06.24-.14.49-.22.73a44.58 44.58 0 011.68 4.46z"/><path fill="#424243" d="M145.3 68v.09c-.15-3.44 3.83-1.49 5-.42a22.43 22.43 0 013.75 4.65 35 35 0 011.95 3.37.47.47 0 01.5-.14 32.14 32.14 0 00-4.26-6.68 11.18 11.18 0 00-3.95-3.24c-1.28-.54-3.35.21-3.49 1.91a.53.53 0 01.5.46z"/><path fill="#424243" d="M153.51 79.83c-.53.39 0 1.43.58 1a7.76 7.76 0 002.55-3.78c-.11-.25-.22-.49-.33-.74a8 8 0 01-2.51 4l2.48-4.08-.28-.57a.56.56 0 00-.12.23 7.05 7.05 0 01-2.37 3.94zm3.38-3.57a.56.56 0 00-.39-.7c.13.26.24.53.36.79l.03-.09z"/><path fill="#424243" d="M156 75.69l.28.57.1-.17-.07.24c.11.24.22.49.33.74.08-.24.16-.48.22-.73-.12-.26-.24-.53-.36-.79a.47.47 0 00-.5.14z"/><path fill="#424243" d="M156.31 76.34v-.07l-2.48 4.08a8 8 0 002.48-4.01z"/><path fill="#424243" d="M156.38 76.09l-.1.17v.07zm-.64 9.66c-.54.39 0 1.43.58 1a7.68 7.68 0 002.51-3.65 36.24 36.24 0 00-.27-.91 8 8 0 01-2.53 4l2.5-4.12-.2-.62a.5.5 0 00-.23.32 7.06 7.06 0 01-2.36 3.98zm3.38-3.57a.55.55 0 00-.25-.63l.22.72.03-.09z"/><path fill="#424243" d="M158.34 81.52l.2.62.08-.13-.06.2c.093.307.183.61.27.91.1-.29.19-.58.27-.87l-.22-.72a.51.51 0 00-.54-.01z"/><path fill="#424243" d="M158.56 82.21v-.07L156 86.26a8 8 0 002.56-4.05z"/><path fill="#424243" d="M158.61 82l-.08.13v.07zm-1.27 9.62c-.54.39 0 1.43.58 1a7.28 7.28 0 002.25-3c0-.37-.1-.75-.16-1.12a7.48 7.48 0 01-2.38 3.6l2.37-3.82c0-.27-.09-.54-.14-.8a.55.55 0 00-.13.24 7.06 7.06 0 01-2.39 3.9zm3.38-3.62a.56.56 0 00-.39-.7c.08.43.15.87.22 1.31.06-.16.12-.36.17-.61z"/><path fill="#424243" d="M159.84 87.48c0 .27.09.53.14.8l.24-.4s-.07.27-.2.65c.06.37.11.75.16 1.12.144-.327.27-.66.38-1-.06-.44-.14-.87-.22-1.31a.47.47 0 00-.5.14z"/><path fill="#424243" d="M160 88.53v-.25l-2.34 3.86a7.48 7.48 0 002.34-3.61z"/><path fill="#424243" d="M160.21 87.88l-.24.4v.25c.17-.38.24-.65.24-.65z"/><path fill="#8E7558" d="M184.97 86.82l-1.95-1.8-2.3 1.8-2.58-1.8-2.23 1.8-2.32-1.8-2.53 1.8-2.41-1.8-2.58 1.8-2.12-1.8-2.44 1.8-2.05-1.8-2.15 1.8-2.23-1.8-2.55 1.8-2.24-1.8-2.47 1.8v49.73h37.16V86.82z"/><path fill="#424243" d="M185 137.14h-37.18a.59.59 0 01-.59-.59V86.82a.61.61 0 01.24-.48l2.47-1.8a.59.59 0 01.71 0l1.89 1.52 2.19-1.54a.59.59 0 01.71 0l1.86 1.5 1.77-1.49a.59.59 0 01.76 0l1.7 1.49 2.06-1.52a.59.59 0 01.73 0l1.77 1.51 2.21-1.54a.59.59 0 01.69 0l2.07 1.54 2.18-1.55a.59.59 0 01.7 0l2 1.51 1.87-1.51a.59.59 0 01.7 0l2.23 1.55 1.95-1.53a.59.59 0 01.76 0l2 1.8a.6.6 0 01.19.44v49.73a.59.59 0 01-.64.69zM148.4 136h36V87.08l-1.4-1.29-1.9 1.49a.59.59 0 01-.7 0l-2.22-1.55-1.89 1.52a.59.59 0 01-.73 0l-2-1.53-2.17 1.54a.59.59 0 01-.69 0l-2.07-1.54-2.23 1.58a.59.59 0 01-.72 0l-1.76-1.5-2.06 1.52a.59.59 0 01-.74 0l-1.68-1.47-1.76 1.47a.59.59 0 01-.75 0l-1.89-1.52-2.19 1.54a.59.59 0 01-.71 0l-1.88-1.52-1.87 1.36.01 48.82z"/><path fill="#AF9068" d="M184.97 86.82l-1.95-1.8-2.3 1.8-2.58-1.8-2.23 1.8-2.32-1.8-2.43 1.72v49.81h13.82V86.82z"/><path fill="#424243" d="M185 137.14h-37.18a.59.59 0 01-.59-.59V86.82a.61.61 0 01.24-.48l2.47-1.8a.59.59 0 01.71 0l1.89 1.52 2.19-1.54a.59.59 0 01.71 0l1.86 1.5 1.77-1.49a.59.59 0 01.76 0l1.7 1.49 2.06-1.52a.59.59 0 01.73 0l1.77 1.51 2.21-1.54a.59.59 0 01.69 0l2.07 1.54 2.18-1.55a.59.59 0 01.7 0l2 1.51 1.87-1.51a.59.59 0 01.7 0l2.23 1.55 1.95-1.53a.59.59 0 01.76 0l2 1.8a.6.6 0 01.19.44v49.73a.59.59 0 01-.64.69zM148.4 136h36V87.08l-1.4-1.29-1.9 1.49a.59.59 0 01-.7 0l-2.22-1.55-1.89 1.52a.59.59 0 01-.73 0l-2-1.53-2.17 1.54a.59.59 0 01-.69 0l-2.07-1.54-2.23 1.58a.59.59 0 01-.72 0l-1.76-1.5-2.06 1.52a.59.59 0 01-.74 0l-1.68-1.47-1.76 1.47a.59.59 0 01-.75 0l-1.89-1.52-2.19 1.54a.59.59 0 01-.71 0l-1.88-1.52-1.87 1.36.01 48.82z"/><ellipse cx="190.16" cy="94.73" fill="#F3D3C5" rx="7.3" ry="7.07"/><path fill="#EDC3B4" d="M188.13 99.85a7.4 7.4 0 006.12-11.51 7.38 7.38 0 11-10.45 10.08 7.3 7.3 0 004.33 1.43z"/><path fill="#424243" d="M182.27 94.73a7.89 7.89 0 117.89 7.66 7.78 7.78 0 01-7.89-7.66zm1.18 0a6.72 6.72 0 106.71-6.48 6.6 6.6 0 00-6.71 6.48z"/><path fill="#FFF" d="M145 97l-8.71 18.32s7.6 1 16.68-10.63L145 97z"/><path fill="#424243" d="M136.86 115.94a4.87 4.87 0 01-.61 0 .59.59 0 01.15-1.17c.08 0 7.23.76 15.8-9.83l-7.58-7.32a.59.59 0 01.82-.85l8 7.69a.59.59 0 01.05.79c-7.85 9.86-14.6 10.69-16.63 10.69zm1.78-14.2a.59.59 0 01-.59-.59V91a.59.59 0 011.18 0v10.19a.59.59 0 01-.59.55z"/><path fill="#424243" d="M140.4 102.11a.59.59 0 01-.4-1.11 47.83 47.83 0 004-3.25.59.59 0 011.11 0c.15.45.23.68-4.37 4.18a.59.59 0 01-.34.18z"/><ellipse cx="150.69" cy="101.75" fill="#F3D3C5" rx="7.55" ry="7.31"/><path fill="#EDC3B4" d="M148.59 107a7.66 7.66 0 006.33-11.91 7.64 7.64 0 11-10.81 10.44 7.56 7.56 0 004.48 1.47z"/><path fill="#424243" d="M142.52 101.75a8.17 8.17 0 118.16 7.92 8.05 8.05 0 01-8.16-7.92zm1.22 0a6.95 6.95 0 106.94-6.7 6.83 6.83 0 00-6.94 6.7z"/></g></g></svg>