<svg xmlns="http://www.w3.org/2000/svg" viewBox="0 0 351 274"><g fill="none" fill-rule="nonzero" transform="translate(-12 -9)"><rect width="35.559" height="2.51" x=".358" y=".351" fill="#424243" opacity=".48" rx="1.255" transform="translate(61.32 233.782)"/><path fill="#F0F1F1" d="M68.57 78.879h255.461v130.17H68.57z"/><path fill="#435E7D" d="M68.57 122.666h255.461v86.384H68.57z"/><path fill="#424243" d="M325.761 79.109v-.23a1.757 1.757 0 00-1.756-1.712H89.093c-6.726 0-13.523-.268-20.249 0h-.28c-.954 0-1.733.76-1.757 1.712v114.068c0 5.27-.243 10.603 0 15.866v.23a1.757 1.757 0 001.756 1.712h234.932c6.726 0 13.522.268 20.248 0h.28c.443.013.871-.153 1.189-.46l.057-.058.032-.032a1.56 1.56 0 00.48-1.162V94.982c-.02-5.27.249-10.603-.02-15.873zM307.43 207.338H75.372c-1.59 0-3.366-.186-5.033-.128V84.2c0-1.124.14-2.396.121-3.603h246.774c1.59 0 3.366.185 5.033.128v112.228c0 4.778-.198 9.581-.05 14.39l-14.788-.005z"/><path fill="#F0F1F1" d="M33.904 209.05h302.632v9.261H33.904z"/><path fill="#424243" d="M336.537 207.338H57.487c-7.735 0-15.528-.275-23.257 0h-.338c-.953 0-1.732.759-1.757 1.711v9.262c0 2.204 3.514 2.204 3.514 0v-7.524h118.647c15.113 0 165.404.3 180.484.044v7.506c0 2.203 3.514 2.203 3.514 0v-9.262a1.757 1.757 0 00-1.757-1.737z"/><path fill="#424243" d="M125.47 227.139H55.525a1.06 1.06 0 01-1.073-1.022v-.205a1.06 1.06 0 011.073-1.073h69.943a1.06 1.06 0 011.073 1.041v.237a1.06 1.06 0 01-1.073 1.022zm202.63 6.604h-5.673a1.392 1.392 0 01-1.405-1.367v-.932a1.392 1.392 0 011.405-1.367h5.672a1.392 1.392 0 011.405 1.367v.932a1.392 1.392 0 01-1.405 1.367z" opacity=".48"/><path fill="#A1C0C9" d="M59.57 74.612h273.505v8.54H59.57z"/><path fill="#424243" d="M335.087 74.785a1.916 1.916 0 00-1.916-1.917H82.347c-7.467 0-14.997-.28-22.458 0h-.32c-.952 0-1.732.76-1.756 1.712v8.54a1.757 1.757 0 001.757 1.712h115.747c14.59 0 139.324.25 157.899.038a1.916 1.916 0 001.865-1.916l.006-8.17zM67.12 81.44c-1.846 0-3.878-.21-5.794-.127v-4.995h248.971c6.988 0 14.053.236 21.021.038v5.11L67.12 81.44zM132.393 132.508H74.267a1.48 1.48 0 00-1.443 1.47v67.528a1.483 1.483 0 001.443 1.47h58.126c.367.009.721-.135.978-.397l.05-.045c.261-.267.402-.63.39-1.003v-67.554a1.482 1.482 0 00-1.418-1.469zm-28.66 67.529H75.704v-64.584h55.24v64.584h-27.211z"/><path fill="#9ED1E3" d="M74.37 134.188h57.743v67.113H74.37z"/><path fill="#424243" d="M318.85 132.508H149.94c-.799.02-1.437.67-1.444 1.47v67.528a1.483 1.483 0 001.444 1.47h168.91c.367.008.72-.135.977-.397l.051-.045c.261-.267.402-.63.39-1.003v-67.554a1.483 1.483 0 00-1.418-1.469zm-28.66 67.529H151.382v-64.584h166.024v64.584h-27.218z"/><path fill="#9ED1E3" d="M150.055 134.188h168.514v67.113H150.055z"/><path fill="#8BBAC6" d="M298.666 140.64v-6.1h-1.406v6.1h-30.493v-6.1h-1.406v6.1h-7.16v10.264h45.785V140.64zm-95.946-6.567h-1.17v5.072H176.2v-5.072h-1.176v5.072h-5.953v8.527h38.07v-8.527h-4.42zm-80.668.281h-1.169v5.072H95.525v-5.072h-1.17v5.072h-5.952v8.534h38.069v-8.534h-4.42zm196.632 66.174l-39.168.077.39-47.459 38.618-.466zm-112.241-46.909h36.089v47.223h-36.089zm-100.04-.473h25.735v47.849h-25.735z"/><path fill="#F0F1F1" d="M65.472 129.634h74.848v4.541H65.472z"/><path fill="#424243" d="M140.32 134.955H65.472a.78.78 0 01-.78-.78v-4.51c0-.43.35-.778.78-.778h74.848c.43 0 .78.348.78.779v4.541a.78.78 0 01-.78.748zm-74.095-1.565h73.316v-2.977H66.257l-.032 2.977z"/><path fill="#F0F1F1" d="M144.28 129.634h182.637v4.541H144.28z"/><path fill="#424243" d="M326.917 134.776H144.28a.639.639 0 01-.638-.639v-4.471c0-.353.286-.639.638-.639h182.637a.64.64 0 01.64.639v4.541a.639.639 0 01-.64.569zm-182.01-1.278H326.31v-3.29H144.906v3.29z"/><path fill="#F0F1F1" d="M144.28 201.352h182.637v4.541H144.28z"/><path fill="#424243" d="M326.917 206.833H144.28a.939.939 0 01-.939-.94v-4.54a.939.939 0 01.94-.94h182.636c.519 0 .94.42.94.94v4.54a.939.939 0 01-.94.94zm-181.698-1.878h180.766v-2.664H145.219v2.664z"/><path fill="#F0F1F1" d="M65.472 201.352h74.848v4.541H65.472z"/><path fill="#424243" d="M140.32 206.833H65.472a.939.939 0 01-.94-.94v-4.54a.939.939 0 01.94-.94h74.848c.519 0 .94.42.94.94v4.54a.939.939 0 01-.94.94zm-73.89-1.878h72.951v-2.664H66.43v2.664z"/><path fill="#F0F1F1" d="M201.544 88.288h126.625v30.96H201.544z"/><path fill="#424243" d="M328.17 120.346H201.543a1.092 1.092 0 01-1.092-1.092V88.288c0-.604.489-1.093 1.092-1.093H328.17c.604 0 1.093.49 1.093 1.093v30.96a1.092 1.092 0 01-1.093 1.098zm-125.527-2.178h124.434V89.425H202.643v28.743z"/><path fill="#A1C0C9" d="M205.581 92.822h118.526v21.89H205.581z"/><path fill="#F0F1F1" d="M225.14 111.493l-2.913-7.269v7.276a1.808 1.808 0 11-3.615 0V97.447a2.325 2.325 0 012.324-2.331c.952 0 1.807.58 2.16 1.463l4.733 11.816 4.713-11.81a2.331 2.331 0 012.166-1.463 2.325 2.325 0 012.331 2.332v14.052a1.808 1.808 0 01-3.615 0v-7.282l-2.913 7.27a2.887 2.887 0 01-2.682 1.813 2.887 2.887 0 01-2.69-1.814zm25.594.62l-1.412-3.884h-5.582l-1.412 3.884a1.815 1.815 0 11-3.41-1.24l5.256-14.53c.259-.72.94-1.2 1.706-1.202h1.315a1.817 1.817 0 011.706 1.201l5.257 14.532a1.814 1.814 0 01-1.706 2.434 1.814 1.814 0 01-1.718-1.195zm-4.216-11.625l-1.462 4.1H248l-1.482-4.1zm12.852-5.315h3.232a5.532 5.532 0 015.563 5.142 5.442 5.442 0 01-2.842 5.11l2.414 5.353a1.808 1.808 0 01-1.647 2.555 1.808 1.808 0 01-1.648-1.067l-2.81-6.234h-.723v5.455a1.808 1.808 0 01-3.615 0V97.224a2.076 2.076 0 012.076-2.05zm3.36 7.263a1.808 1.808 0 001.788-2.146 1.872 1.872 0 00-1.852-1.476h-1.022a.735.735 0 00-.735.735v2.146c0 .406.33.735.735.735l1.086.006zm10.712-7.263c.998 0 1.807.81 1.807 1.808v5.621l5.11-6.72c.343-.447.874-.71 1.437-.709a1.808 1.808 0 011.438 2.907l-4.35 5.697 5.071 6.656a1.808 1.808 0 01-1.437 2.906 1.808 1.808 0 01-1.437-.709l-4.471-5.85-1.393 1.794v2.958a1.808 1.808 0 01-3.615 0V96.956a1.808 1.808 0 011.84-1.783zm15.099 0h8.374a1.82 1.82 0 110 3.64l-5.512.001v3.616h5.512a1.82 1.82 0 110 3.64h-5.512v3.622h5.512a1.82 1.82 0 010 3.64l-8.374.001a.76.76 0 01-.76-.76V95.902a.76.76 0 01.76-.729zm22.114 3.616v12.698a1.82 1.82 0 01-3.64 0V98.789h-3.284a1.82 1.82 0 01-1.82-1.82 1.82 1.82 0 011.82-1.821h10.22a1.82 1.82 0 110 3.64h-3.296z"/><path fill="#8BBAC6" d="M208.238 95.953h115.71v-3.13H205.42v21.89h2.817z" opacity=".28" style="mix-blend-mode:multiply"/><path fill="#F0F1F1" d="M132.949 130.036h23.742v78.885h-23.742z"/><path fill="#424243" d="M156.691 128.484H132.95a1.495 1.495 0 00-1.38 1.552v78.886a1.495 1.495 0 001.38 1.552h23.742c.398.01.775-.177 1.01-.498.252-.292.384-.669.37-1.054v-78.886a1.495 1.495 0 00-1.38-1.552zm-20.778 78.885h-1.584v-75.787h20.983v75.787h-19.4z"/><path fill="#9ED1E3" d="M136.928 187.818h15.202v17.157h-15.202z"/><path fill="#9ED1E3" d="M136.928 137.324h15.202v55.003h-15.202z"/><path fill="#F0F1F1" d="M156.895 130.036h23.742v78.885h-23.742z"/><path fill="#424243" d="M180.638 128.484h-23.742a1.495 1.495 0 00-1.38 1.552v78.886a1.495 1.495 0 001.38 1.552h23.742c.398.01.775-.177 1.01-.498.251-.292.384-.669.37-1.054v-78.886a1.495 1.495 0 00-1.38-1.552zm-20.779 78.885h-1.584v-75.787h20.983v75.787H159.86z"/><path fill="#9ED1E3" d="M160.875 187.818h15.202v17.157h-15.202z"/><path fill="#9ED1E3" d="M160.875 137.324h15.202v55.003h-15.202z"/><path fill="#F0F1F1" d="M133.747 131.505h46.111v75.89h-46.111z"/><path fill="#9ED1E3" d="M136.207 134.06h41.959v21.737h-41.959zm0 24.86h41.959v46.539h-41.959z"/><path fill="#8BBAC6" d="M186.61 187.096a1.118 1.118 0 00-1.475-.467l-2.147.786a.262.262 0 00-.146.134.262.262 0 000 .077 2.894 2.894 0 00-1.878 2.338v.242h-21.08a.524.524 0 00-.523.594l1.463 10.623c0 1.097.876 1.994 1.974 2.018h.408a2.427 2.427 0 00-.894 1.884 2.466 2.466 0 002.293 2.46h.16a1.916 1.916 0 102.555 0h7.965a1.916 1.916 0 102.555 0h2.261a.262.262 0 00.262-.262v-.888a.262.262 0 00-.262-.262H164.74a.984.984 0 01-.983-1.003 1.016 1.016 0 011.028-1.003H180.3a.262.262 0 00.262-.223l1.968-13.989c.11-.45.435-.818.868-.983a.262.262 0 00.16.057h.09l2.146-.786c.596-.148.962-.75.817-1.347zm-25.594 8.508h2.127l.198 1.846h-2.07l-.255-1.846zm2.657 0h2.331l.134 1.846h-2.274l-.191-1.846zm2.861 0h2.236l.038 1.846h-2.133l-.14-1.846zm5.11 2.376l-.038 1.846h-2.236l-.038-1.846h2.312zm-2.325-.524l-.038-1.846h2.414l-.038 1.846h-2.338zm7.148 4.931h-1.993l.153-2.031h2.057l-.217 2.031zm.74-2.031h1.776l-.134.958a.543.543 0 000 .07.97.97 0 01-.926 1.003h-.932l.217-2.031zm-3.263 2.031h-1.872l.045-2.031h1.98l-.153 2.031zm5.11-2.555h-1.795l.198-1.846h1.852l-.255 1.846zm-2.325 0h-2.07l.134-1.846h2.14l-.204 1.846zm-2.6 0h-1.986l.038-1.846h2.108l-.16 1.846zm-2.555.524l-.045 2.031h-2.127l-.044-2.031h2.216zm7.793-2.9h-1.872l.198-1.846h1.916l-.242 1.846zm-2.396 0h-2.146l.134-1.846h2.204l-.192 1.846zm-2.676 0h-2.133l.038-1.846h2.236l-.14 1.846zm-2.082-2.376l.038-1.846h2.357l-.134 1.846h-2.261zm-.524 0h-2.42l-.04-1.846h2.511l-.051 1.846zm-2.964 0h-2.261l-.134-1.846h2.357l.038 1.846zm.064 2.9l.038 1.846h-1.986l-.134-1.846h2.082zm.051 2.376l.045 2.031h-1.852l-.154-2.031h1.961zm10.859-5.27h-1.916l.198-1.846h1.999l-.281 1.846zm-2.472 0h-2.21l.134-1.846h2.28l-.204 1.846zm-2.044-2.376l.109-1.456h2.344l-.154 1.456h-2.3zm-.524 0h-2.389v-1.456h2.466l-.077 1.456zm-2.913 0h-2.555v-1.456h2.632l-.077 1.456zm-3.06 0h-2.388l-.109-1.456h2.466l.032 1.456zm-2.912 0h-2.427l-.153-1.456h2.472l.108 1.456zm.039.524l.134 1.846h-2.35l-.199-1.846h2.415zm-2.74 1.846h-2.109l-.255-1.846h2.172l.191 1.846zm-1.744 2.9h2.05l.198 1.846h-1.974l-.274-1.846zm2.554 0h2.262l.134 1.846h-2.197l-.199-1.846zm2.434 2.376l.153 2.031h-2.12l-.217-2.031h2.184zm13.695-7.665h-2.019l.154-1.456h2.063l-.198 1.456zm-17.368-1.456l.154 1.456h-2.217l-.198-1.456h2.261zm-.875 10.13a.543.543 0 000-.07l-.134-.958h1.974l.217 2.031h-1.13a.97.97 0 01-.888-.99l-.039-.013zm1.578-32.423l-7.128-9.753a.466.466 0 00-.78.032l-6.157 10.098-1.917.051.186 6.982 17.246-.466-.185-6.982-1.265.038zm-7.493-8.616l6.33 8.661-11.804.32 5.474-8.981z"/><path fill="#F0F1F1" d="M252.382 145.59l-25.818 21.2-3.654 3.002c-.888.728.038 2.274.933 1.54l25.818-21.226 3.654-3.002c.887-.729-.039-2.274-.933-1.54v.026zm-5.576 21.666l-23.634 19.38-3.34 2.746c-.812.64.031 2.076.849 1.406l23.634-19.38 3.34-2.747c.811-.638-.032-2.076-.85-1.405z" opacity=".57"/><path fill="#F0F1F1" d="M282.46 139.58l-23.633 19.379-3.34 2.746c-.812.64.031 2.076.849 1.406l23.634-19.38 3.34-2.747c.811-.638-.032-2.076-.85-1.405z" opacity=".36"/><path fill="#F0F1F1" d="M110.727 156.78l-21.143 17.362-2.995 2.459c-.729.594 0 1.859.76 1.277l21.142-17.36 2.996-2.46c.728-.594 0-1.859-.76-1.277zm-.153 13.248l-21.15 17.361-2.995 2.46c-.728.594 0 1.858.76 1.277l21.155-17.387 2.996-2.459c.728-.594 0-1.859-.76-1.277l-.006.025z" opacity=".57"/><path fill="#BCD589" d="M309.735 192.998c0 4.1-3.832 8.08-7.34 8.08-3.506 0-6.789-3.98-6.789-8.08a6.694 6.694 0 016.79-6.771c3.513 0 7.34 2.67 7.34 6.77z"/><path fill="#424243" d="M302.396 201.8c-3.833 0-7.518-4.28-7.518-8.802a7.435 7.435 0 017.518-7.493c3.896 0 8.067 3.009 8.067 7.493-.032 4.375-4.075 8.802-8.067 8.802zm0-14.851a5.998 5.998 0 00-6.068 6.042c0 3.711 3.002 7.352 6.068 7.352 3.194 0 6.617-3.781 6.617-7.352 0-3.57-3.423-6.036-6.617-6.036v-.006z"/><circle cx="288.145" cy="193.005" r="6.771" fill="#BCD589" transform="rotate(-74.03 288.145 193.005)"/><path fill="#424243" d="M288.126 200.567a7.55 7.55 0 117.263-5.474 7.563 7.563 0 01-7.263 5.474zm0-13.535a5.985 5.985 0 101.642.23 5.998 5.998 0 00-1.635-.25l-.007.02z"/><path fill="#AECC62" d="M321.84 186.08a7.128 7.128 0 00-6.784 5.327 7.665 7.665 0 00-4.861-1.756 7.952 7.952 0 00-7.429 5.41 7.786 7.786 0 00-14.64-.524 7.965 7.965 0 00-7.48-5.576c-4.381 0-7.933 3.73-7.933 8.303 0 4.574 3.552 8.304 7.934 8.304a7.92 7.92 0 007.217-4.893 7.8 7.8 0 0014.902.16 7.952 7.952 0 007.429 5.48 8.035 8.035 0 007.754-6.591 6.803 6.803 0 003.89 1.226 7.435 7.435 0 000-14.85v-.02z"/><path fill="#424243" d="M310.195 207.063a8.661 8.661 0 01-7.429-4.376 8.495 8.495 0 01-14.978-.23 8.61 8.61 0 01-7.141 3.916c-4.797 0-8.694-4.075-8.694-9.09 0-5.014 3.903-9.089 8.694-9.089a8.642 8.642 0 017.556 4.606 8.483 8.483 0 0114.57.453 8.661 8.661 0 017.422-4.369 8.304 8.304 0 014.471 1.278 7.876 7.876 0 017.16-4.874c4.325 0 7.838 3.673 7.838 8.189s-3.513 8.188-7.837 8.188a7.53 7.53 0 01-3.405-.81 8.776 8.776 0 01-8.227 6.208zm-7.429-6.95c.325 0 .614.205.722.511a7.224 7.224 0 006.7 4.906 7.3 7.3 0 007.027-5.979.766.766 0 011.188-.479 6.043 6.043 0 003.456 1.092 6.669 6.669 0 000-13.318 6.387 6.387 0 00-6.062 4.778.766.766 0 01-1.22.384 6.86 6.86 0 00-4.382-1.585 7.224 7.224 0 00-6.7 4.906.766.766 0 01-1.444 0 7.026 7.026 0 00-13.222-.479.792.792 0 01-.735.46.766.766 0 01-.69-.524 7.211 7.211 0 00-6.757-5.078c-3.954 0-7.167 3.392-7.167 7.563 0 4.17 3.194 7.563 7.167 7.563a7.173 7.173 0 006.515-4.433.792.792 0 01.734-.46c.316.015.59.223.69.524a7.026 7.026 0 0013.459.146c.112-.3.4-.5.721-.498z"/><path fill="#F0F1F1" d="M270.178 196.958h61.275v10.488h-61.275z"/><path fill="#424243" d="M331.453 208.232H270.19a.786.786 0 01-.785-.786v-10.488a.786.786 0 01.785-.786h61.275a.786.786 0 01.786.786v10.488a.786.786 0 01-.798.786zm-60.49-1.565h59.704v-8.943h-59.704v8.943z"/><ellipse cx="297.929" cy="194.175" fill="#BCD589" rx="1.527" ry="1.022" transform="rotate(-66.57 297.929 194.175)"/><ellipse cx="310.545" cy="192.783" fill="#BCD589" rx="1.093" ry="1" transform="rotate(-87.709 310.545 192.783)"/><ellipse cx="326.073" cy="193.069" fill="#BCD589" rx="1.527" ry="1.022" transform="rotate(-66.57 326.073 193.07)"/><ellipse cx="283.432" cy="192.998" fill="#BCD589" rx="1.022" ry="1.527"/><ellipse cx="300.31" cy="189.001" fill="#AECC62" rx="1" ry="1.009" transform="rotate(-15 300.31 189.001)"/><ellipse cx="277.506" cy="193.787" fill="#BCD589" rx="1.022" ry="1.277" transform="rotate(-1.51 277.506 193.787)"/><circle cx="313.075" cy="193.502" r="1.737" fill="#F0F1F1" transform="rotate(-45 313.075 193.502)"/><circle cx="313.069" cy="193.496" fill="#E9B13D" r="1"/><circle cx="296.784" cy="194.766" r="1.143" fill="#F0F1F1" transform="rotate(-45 296.784 194.766)"/><circle cx="296.781" cy="194.767" fill="#E9B13D" r="1"/><path fill="#F0F1F1" d="M303.897 188.188a.965.965 0 010 1.699 2.325 2.325 0 01-2.46 0 .965.965 0 010-1.7 2.325 2.325 0 012.46 0z"/><circle cx="302.671" cy="189.037" fill="#E9B13D" r="1"/><path fill="#F0F1F1" d="M323.06 188.098a1.111 1.111 0 010 1.872 2.14 2.14 0 01-2.46 0 1.111 1.111 0 010-1.872 2.14 2.14 0 012.46 0z"/><circle cx="321.833" cy="189.031" fill="#E9B13D" r="1"/><path fill="#F0F1F1" d="M294.303 192.059a1.111 1.111 0 010 1.871 2.14 2.14 0 01-2.46 0 1.111 1.111 0 010-1.871 2.14 2.14 0 012.46 0z"/><circle cx="293.077" cy="192.998" fill="#E9B13D" r="1"/><path fill="#CF6C65" d="M315.67 186.335c-.218-.204-.582-.14-.953.122 0-.556-.198-.977-.504-1.041-.307-.064-.639.255-.9.773-.23-.416-.55-.64-.838-.543-.434.153-.638.977-.453 1.833a2.089 2.089 0 001.322 1.59c.805.256 1.667-.313 2.146-1.117.243-.41.575-1.233.18-1.617z"/><path fill="#CE534F" d="M189.887 230.269c.728-.352 1.827-1.016 2.957.357 1.13 1.374.677 3.89-1.111 4.471a3.015 3.015 0 01-3.935-2.452c-.204-1.802 1.271-1.993 2.089-2.376z"/><path fill="#424243" d="M189.018 234.912a3.066 3.066 0 01-1.399-2.229c-.178-1.648.94-2.076 1.757-2.389.16-.057.307-.115.434-.179l.134-.064c.703-.345 1.917-.926 3.034.473.631.808.836 1.87.55 2.855a2.721 2.721 0 01-1.738 1.916l-.287.084a3.194 3.194 0 01-2.485-.467zm1.073-4.548l-.134.064a6.725 6.725 0 01-.46.192c-.792.306-1.686.639-1.533 2.025.096.81.55 1.535 1.24 1.973a2.842 2.842 0 002.465.333 2.383 2.383 0 001.514-1.674 2.836 2.836 0 00-.48-2.555 1.642 1.642 0 00-1.75-.722 4.08 4.08 0 00-.855.364h-.007z"/><path fill="#424243" d="M189.99 230.971l.159-.05c.162-.073.3-.19.396-.34l.07-.089a.115.115 0 000-.166.115.115 0 00-.166 0l-.09.115a.683.683 0 01-.306.262c-.135.05-.278.072-.422.064a.798.798 0 00-.3.038.115.115 0 00-.057.153.115.115 0 00.153.064.677.677 0 01.21 0 1.66 1.66 0 00.352-.05z"/><path fill="#618047" d="M190.123 230.805c-.083-.32-.249-.881-.249-.945v-.173l-.575.288c.296.247.55.54.754.868l.07-.038z"/><path fill="#424243" d="M189.919 230.888a3.52 3.52 0 00-.728-.824.121.121 0 01-.039-.102.115.115 0 01.064-.09l.575-.287a.115.115 0 01.102 0 .115.115 0 01.064.083l.032.192c0 .044.07.287.128.479.057.191.09.313.121.44a.115.115 0 01-.07.141l-.102.038a.115.115 0 01-.147-.07zm-.447-.888c.157.144.304.297.44.46v-.064a3.628 3.628 0 01-.134-.517l-.306.121z"/><path fill="#CE534F" d="M194.563 230.064c.804 0 2.082-.16 2.555 1.559.472 1.718-1.01 3.832-2.881 3.615a3.015 3.015 0 01-2.555-3.87c.581-1.738 2-1.285 2.88-1.304z"/><path fill="#424243" d="M191.835 233.922a3.066 3.066 0 01-.338-2.606c.523-1.571 1.718-1.495 2.593-1.443h.613c.786 0 2.102-.058 2.555 1.692a3.194 3.194 0 01-.69 2.823 2.721 2.721 0 01-2.376 1.01l-.294-.045a3.194 3.194 0 01-2.063-1.43zm2.874-3.685h-.645c-.843-.051-1.8-.115-2.242 1.2a2.715 2.715 0 00.307 2.306 2.842 2.842 0 002.101 1.329 2.383 2.383 0 002.076-.888c.603-.683.84-1.615.64-2.504a1.642 1.642 0 00-1.278-1.386 4.082 4.082 0 00-.959-.057z"/><path fill="#424243" d="M194.358 230.741h.166a.907.907 0 00.498-.14l.103-.051a.115.115 0 00.064-.154.115.115 0 00-.154-.064l-.128.064a.683.683 0 01-.39.115 1.048 1.048 0 01-.408-.115.798.798 0 00-.287-.09.115.115 0 00-.122.116.115.115 0 00.115.121.71.71 0 01.205.07c.107.055.22.098.338.128z"/><path fill="#618047" d="M194.556 230.645c.058-.319.14-.907.166-.964l.045-.166h-.639c.167.348.277.721.326 1.105l.102.025z"/><path fill="#424243" d="M194.388 230.639a3.15 3.15 0 00-.366-1.054.106.106 0 010-.109.14.14 0 01.112-.057h.747a.144.144 0 01.112.045.1.1 0 010 .102l-.06.185c0 .045-.06.288-.097.486-.037.198-.06.325-.09.447-.011.058-.073.1-.142.096h-.142c-.063-.024-.095-.085-.074-.141zm-.038-.99c.096.195.176.396.24.6v-.063c.021-.18.059-.357.111-.53l-.35-.007z"/><path fill="#E9B13D" d="M178.21 213.342a.217.217 0 000 .121c0 .677.365.914.933.958v4.305h-1.233v-1.175a.243.243 0 00-.479 0v1.175h-1.277v-1.8a.243.243 0 00-.48 0v1.8h-1.149v-4.292h1.495a.243.243 0 000-.48h-1.737c-.333 0-.365-.312-.41-.555.077-1.558 3.546-1.36 4.67-1.411h1.38a2.65 2.65 0 00-1.712 1.354z"/><path fill="#424243" d="M173.458 213.45a.25.25 0 000 .045v-.045zm0-.012a.255.255 0 01.243-.288.99.99 0 000 .236c.006.07.02.138.038.205a.23.23 0 01-.268-.122.25.25 0 01-.013-.031z"/><path fill="#424243" d="M180.766 211.751a16.984 16.984 0 00-2.696 0c-.703.047-1.405.105-2.108.173a3.385 3.385 0 00-1.763.44 1.194 1.194 0 00-.504.78.256.256 0 00-.243.23c.077-1.719 2.127-1.667 3.398-1.776a20.395 20.395 0 014.925.051c-.34 0-.677.035-1.01.102zm-7.026 1.859c.102.358.12.53.485.562a.236.236 0 00.121.224l-.243-.243v.198c-.415-.109-.536-.396-.638-.888a.23.23 0 00.274.147zm.6 5.097v.243h1.386a.243.243 0 00.479 0h1.277a.243.243 0 00.48 0h1.232c0 .134.109.243.243.243h-5.072a.243.243 0 01-.242-.243v-4.573c.08.021.16.036.242.044l-.025 4.286z"/><path fill="#424243" d="M174.34 214.415a1.444 1.444 0 01-.243-.045v-.198l.243.243zm-.409-1.029c.038.243.07.524.409.556h.05a.224.224 0 00-.172.224c-.357 0-.383-.205-.485-.562a.23.23 0 00.198-.218z"/><path fill="#424243" d="M174.576 214.415v4.292h-.243v-4.318a.236.236 0 00.109 0l.134.026zm0 4.535l-.243-.243h.243zm1.15-.243v.243h-1.15v-.243z"/><path fill="#424243" d="M174.34 218.95v-.243l.243.243zm-.134-6.58a3.385 3.385 0 011.763-.44 70.262 70.262 0 012.107-.172 16.984 16.984 0 012.696 0 4.995 4.995 0 00-.569.134l-.223.076h-1.38c-1.124.058-4.586-.146-4.669 1.412v-.057a.198.198 0 00-.224-.173 1.2 1.2 0 01.499-.78z"/><path fill="#424243" d="M173.918 213.342v.057a.23.23 0 01-.198.224 1.099 1.099 0 01-.038-.205.99.99 0 010-.236.198.198 0 01.236.16zm5.244 5.365v.243h-1.232v-.243zm-1.705 0v.243h-1.278v-.243z"/><path fill="#F0F1F1" d="M182.254 212.18c.651.07 1.278.289 1.833.638.096.077.204.051.307.128.105.084.2.178.287.28a.492.492 0 01.109.18.37.37 0 01-.16.383c-.21.153-.862.038-.862.39v4.535h-3.36l1.488-6.554.358.02zm-2.332 6.508a.21.21 0 01.16 0 .396.396 0 00-.16 0zm.345-1.546a5.87 5.87 0 00-.345 1.527h-.249v-4.529a.243.243 0 00-.242-.243c-.313 0-.71.077-.69-.504.326-.869 1.641-1.214 2.683-1.278l-.64 2.74-.517 2.287zm-.345 1.546h-.038.038zm1.974-6.534l-1.488 6.553h-.25l1.49-6.56zm-1.999 6.534h-.236z"/><path fill="#F0F1F1" d="M179.922 218.675a5.87 5.87 0 01.345-1.526l.511-2.242.64-2.74h.248l-1.488 6.56h-.077a.21.21 0 00-.179-.052z"/><path fill="#F0F1F1" d="M180.082 218.707h-.16a.396.396 0 01.16 0z"/><path fill="#424243" d="M180.338 219.014v-.064h3.653v-4.535h.243v4.541a.243.243 0 01-.243.243h-3.864a.243.243 0 00.21-.185zm3.909-4.836v.23h-.243z"/><path fill="#424243" d="M184.413 214.178a.6.6 0 00.55-.792 1.916 1.916 0 00-.76-.779 4.727 4.727 0 00-2.262-.69.23.23 0 00-.166-.249 5.046 5.046 0 011.852.377c.6.25 1.674.799 1.61 1.597-.051.588-.511.74-.984.773v-.23l.16-.007z"/><path fill="#424243" d="M184.247 214.178l-.243.243v-.243zm-5.04-1.571c-.25.143-.468.337-.639.569a.256.256 0 00-.338.217v.057a.217.217 0 010-.121 2.65 2.65 0 011.73-1.36l.735.05a4.471 4.471 0 00-1.488.588zm-.747 1.009c0 .301.236.549.536.562h.166v.23c-.562-.044-.951-.28-.932-.958a.23.23 0 00.23.166zm.945.799h-.243v-.23z"/><path fill="#424243" d="M179.405 214.415v4.292h-.243v-4.305z"/><path fill="#424243" d="M179.405 214.178v.243l-.243-.243zm-.933-.792a.754.754 0 000 .224.23.23 0 01-.23-.166v-.058a.256.256 0 01.34-.217l-.04.058a.639.639 0 00-.07.16zm3.468-1.476h-.235l-.218-.037-.594-.096h-.127c.332-.061.67-.09 1.009-.083a.23.23 0 01.166.217zm-2.778 7.04h1.188v.064a.243.243 0 01-.23.179h-.696a.243.243 0 01-.262-.243z"/><path fill="#424243" d="M180.714 212.013l-.734-.051.224-.077c.186-.055.376-.1.568-.134h.109l.594.096v.058c-.256.016-.51.053-.76.108zm-1.309 6.694v.243h-.243v-.243zm2.05-6.797v-.057.052zm.032-.05l.218.038h-.186zm2.274 6.847v.243h-3.41l.057-.243zm.243.243h-.243l.243-.243z"/><path fill="#424243" d="M184.004 218.707l-.243.243v-.243z"/><path fill="#424243" d="M183.761 214.178c0-.402.677-.146.837-.46a.505.505 0 00-.038-.478 1.654 1.654 0 00-.48-.428 4.324 4.324 0 00-1.833-.64h-.357l.045-.19a.262.262 0 000-.046 4.73 4.73 0 012.26.69c.324.181.588.452.76.78a.6.6 0 01-.549.792h-.402v4.535h-.243v-4.555zm-5.046-.792v.045a.236.236 0 01-.243.16.754.754 0 010-.224.639.639 0 01.058-.166l.038-.057a.198.198 0 01.147.242zm1.169 5.321h.038c.013.224-.076.083-.038 0z"/><path fill="#424243" d="M178.715 213.431v-.045a.198.198 0 00-.147-.217c.171-.232.389-.425.64-.568.46-.285.968-.485 1.5-.588l.703.083v.064c-1.054.058-2.37.402-2.696 1.271zm.69.747h-.402a.562.562 0 01-.537-.562.236.236 0 00.243-.16c0 .582.383.505.69.505.134 0 .242.109.242.243v4.529h-.242v-4.535l.006-.02zm1.003 4.529l-.058.243h-.223l.057-.243zm1.488-6.553h-.249l.058-.256h.236a.262.262 0 010 .045l-.045.21z"/><path fill="#424243" d="M181.455 211.91l-.044.186-.703-.083a4.95 4.95 0 01.747-.102zm.065 0l.12.218h-.23l.045-.185z"/><path fill="#424243" d="M181.404 212.16v-.064h.23l-.121-.217h.185l-.057.255zm-1.52 6.547c-.038.077.051.217.038 0h.237l-.058.243h-.46v-.243h.243z"/><path fill="#424243" d="M179.59 218.707h.058v.243l-.243-.243z"/><path fill="#424243" d="M179.648 218.95h-.243v-.243zm-3.571-5.014a.243.243 0 010 .479h-1.494v-.243a.236.236 0 00-.192-.23h.057l1.63-.006zm-1.737.454a.236.236 0 01-.122-.224h.122v.223z"/><path fill="#424243" d="M174.378 213.949c.11.02.19.117.192.23v.242h-.134a.236.236 0 01-.109 0v-.217h-.121a.224.224 0 01.172-.255zm3.558 3.589v1.176h-.486v-1.176a.243.243 0 01.486 0zm0 1.412a.243.243 0 01-.48 0h.48z"/><path fill="#424243" d="M177.693 218.707h.243v.243h-.243zm-.185 0h.185v.243h-.243v-.243zm-1.303-1.801v1.801h-.486v-1.801a.243.243 0 11.486 0zm0 2.044a.243.243 0 01-.48 0h.48zm-.236-.243h.242v.243h-.242zm0 0v.243h-.243v-.243z"/><path fill="#D8B071" d="M184.266 221.69a1.916 1.916 0 01-.466.894l-.92.18-.332-.46a3.079 3.079 0 01-.18-.556 11.114 11.114 0 01-.312-2.115 13.305 13.305 0 01.083-2.382c.187.466.493.876.888 1.188.21.16.44-.256.23-.409a2.798 2.798 0 01-.94-1.546.217.217 0 00-.05-.095c.095-.537.217-1.074.364-1.604l.038-.121a3.04 3.04 0 00.99 1.444c.21.16.44-.256.23-.41a2.798 2.798 0 01-.939-1.545.198.198 0 00-.09-.128 17.68 17.68 0 01.64-1.763c.18.591.533 1.114 1.015 1.501.21.16.44-.255.23-.408a2.798 2.798 0 01-.939-1.546.224.224 0 00-.045-.09c.224-.46.474-.908.748-1.341a8.885 8.885 0 011.488-1.84c.473-.428 2.057-1.194 1.993.166l-1.214 4.21c-.817 2.912-1.54 5.889-2.51 8.776z"/><path fill="#424243" d="M188.43 208.704a.281.281 0 000-.057v.057z"/><path fill="#424243" d="M188.162 208.928l.064-.217a.894.894 0 000-.224.192.192 0 01.205.18.281.281 0 010 .057.217.217 0 01-.269.204z"/><path fill="#424243" d="M182.292 222.77a5.749 5.749 0 01-.55-2.102 12.775 12.775 0 01-.07-2.919c.174-1.85.635-3.663 1.368-5.372.715-1.699 1.82-3.717 3.334-4.65.824-.504 2.095-.306 2.05.933a.192.192 0 00-.204-.18 1.016 1.016 0 00-1.386-.753 4.43 4.43 0 00-1.565 1.278 12.737 12.737 0 00-1.687 2.644.224.224 0 00-.153.281v.038a18.166 18.166 0 00-.798 2.057.217.217 0 00-.096.25v.031l-.077.256a17.463 17.463 0 00-.409 1.756.224.224 0 00-.153.281c0 .083.045.16.07.237a12.775 12.775 0 000 4.062c.066.601.228 1.188.48 1.738a.83.83 0 001.277.261c.303-.27.525-.62.639-1.009l2.012-6.975 1.73-5.991a.217.217 0 00.263-.198v.032l-3.105 10.75a14.238 14.238 0 01-.92 2.95c-.485.946-1.488 1.208-2.05.314z"/><path fill="#424243" d="M182.63 214.779a17.12 17.12 0 00-.363 1.603.185.185 0 00-.192-.05c.106-.593.242-1.18.409-1.757l.083-.256c0 .115.064.23.108.345l-.044.115zm-.587 4.848a11.1 11.1 0 00.313 2.114c.042.19.102.377.179.556l.332.46.92-.179c.232-.251.393-.56.466-.894.952-2.887 1.693-5.864 2.555-8.79l1.214-4.209a.185.185 0 00.14.211l-1.73 5.991-2.013 6.976c-.114.39-.335.739-.639 1.009a.83.83 0 01-1.277-.262 5.647 5.647 0 01-.48-1.737 12.775 12.775 0 010-4.063c.043.135.092.267.148.396a13.305 13.305 0 00-.128 2.421z"/><path fill="#424243" d="M188.162 208.928a.185.185 0 01-.14-.21v-.04a.21.21 0 01.198-.165c.01.074.01.15 0 .223l-.058.192zm-5.302 5.091a.204.204 0 00-.21 0c.224-.701.49-1.388.798-2.057 0 .096.058.192.09.287a17.68 17.68 0 00-.677 1.77z"/><path fill="#424243" d="M188.028 208.653v.039c.058-1.36-1.52-.588-1.993-.166a8.885 8.885 0 00-1.488 1.84c-.274.432-.523.88-.747 1.34a.185.185 0 00-.198-.05 12.737 12.737 0 011.686-2.645c.416-.54.952-.978 1.565-1.277a1.016 1.016 0 011.386.753.21.21 0 00-.21.166zm-3.251 4.689c.21.153 0 .562-.23.409a3.072 3.072 0 01-1.016-1.502l.135-.293a3.14 3.14 0 00.996 1.59l-.984-1.616.115-.223a.224.224 0 01.045.089c.133.605.463 1.149.939 1.546zm-1.341-1.406a.224.224 0 01.153-.28l-.147.312-.006-.032z"/><path fill="#424243" d="M183.787 211.713l-.115.223-.038-.07v.096l-.135.294a4.953 4.953 0 01-.089-.288l.147-.313a.185.185 0 01.23.058zm-.121.255l.983 1.616a3.149 3.149 0 01-.983-1.616zm-.032-.095l.038.07zm.256 3.819c.21.154 0 .562-.23.41a3.04 3.04 0 01-.99-1.444l.108-.365a3.194 3.194 0 001.002 1.604l-.99-1.635.077-.243a.198.198 0 01.09.128c.131.604.459 1.147.932 1.545zm-1.336-1.412a.217.217 0 01.096-.248l-.09.28-.006-.031z"/><path fill="#424243" d="M182.86 214.019l-.076.243v-.052.083l-.109.365c-.038-.115-.076-.23-.108-.345l.09-.281a.204.204 0 01.204-.013z"/><path fill="#424243" d="M182.778 214.293l.99 1.636a3.194 3.194 0 01-.99-1.636zm-.026-.076v.05zm.505 3.807c.21.153 0 .562-.23.409a2.887 2.887 0 01-.888-1.189c0-.146.038-.293.064-.447.168.558.497 1.053.945 1.425l-.926-1.527c0-.108.038-.21.051-.32.025.028.042.06.051.097.13.606.458 1.152.933 1.552zm-1.342-1.418a.224.224 0 01.154-.281c0 .172-.064.345-.083.517-.026-.077-.045-.153-.07-.236z"/><path fill="#424243" d="M182.267 216.382c0 .109-.039.211-.051.32l-.096-.16s0 .102.083.255c.083.154-.045.294-.064.447a4.114 4.114 0 01-.147-.396c0-.172.057-.344.083-.517a.185.185 0 01.192.051z"/><path fill="#424243" d="M182.196 216.797v-.102l.927 1.527a2.964 2.964 0 01-.927-1.425z"/><path fill="#424243" d="M182.12 216.535l.096.16v.102a1.553 1.553 0 01-.096-.262z"/><path fill="#424243" d="M172.072 235.832V216.12c0-.065.029-.128.077-.172l.78-.716a.23.23 0 01.3 0l.772.607.882-.639a.23.23 0 01.28 0l.742.595.773-.6a.23.23 0 01.274 0l.863.638.817-.639a.23.23 0 01.275 0l.875.639.703-.594a.23.23 0 01.287 0l.818.6.677-.587a.23.23 0 01.3 0l.702.587.735-.594a.23.23 0 01.281 0l.869.639.747-.6a.23.23 0 01.281 0l.984.715c.06.045.095.116.096.192v19.705a.23.23 0 01-.23.23h-14.73a.23.23 0 01-.23-.294zm14.73-19.59l-.741-.537-.748.6a.23.23 0 01-.28 0l-.87-.638-.747.6a.23.23 0 01-.293 0l-.697-.587-.638.58a.23.23 0 01-.294 0l-.818-.6-.696.594a.23.23 0 01-.281 0l-.888-.638-.818.638a.23.23 0 01-.274 0l-.863-.638-.785.606a.23.23 0 01-.288 0l-.747-.6-.881.639a.23.23 0 01-.275 0l-.754-.588-.556.511v19.373h14.264l-.032-19.315z"/><path fill="#AF9068" d="M172.302 216.12l.78-.715.906.715 1.029-.715.881.715.92-.715.958.683v19.744h-5.474V216.12z"/><path fill="#424243" d="M172.072 235.832V216.12c0-.065.029-.128.077-.172l.78-.716a.23.23 0 01.3 0l.772.607.882-.639a.23.23 0 01.28 0l.742.595.773-.6a.23.23 0 01.274 0l.863.638.817-.639a.23.23 0 01.275 0l.875.639.703-.594a.23.23 0 01.287 0l.818.6.677-.587a.23.23 0 01.3 0l.702.587.735-.594a.23.23 0 01.281 0l.869.639.747-.6a.23.23 0 01.281 0l.984.715c.06.045.095.116.096.192v19.705a.23.23 0 01-.23.23h-14.73a.23.23 0 01-.23-.294zm14.73-19.59l-.741-.537-.748.6a.23.23 0 01-.28 0l-.87-.638-.747.6a.23.23 0 01-.293 0l-.697-.587-.638.58a.23.23 0 01-.294 0l-.818-.6-.696.594a.23.23 0 01-.281 0l-.888-.638-.818.638a.23.23 0 01-.274 0l-.863-.638-.785.606a.23.23 0 01-.288 0l-.747-.6-.881.639a.23.23 0 01-.275 0l-.754-.588-.556.511v19.373h14.264l-.032-19.315z"/><path fill="#2B2B2B" d="M147.404 195.795c2.555 5.672 7.428 8.815 14.576 9.364.051 1.559.083 2.338.134 3.897-9.396-.524-16.026-5.25-18.932-13.318l4.222.057z"/><ellipse cx="160.467" cy="207.244" fill="#F3D3C5" rx="2.529" ry="2.446" transform="rotate(-6.02 160.467 207.244)"/><path fill="#272525" d="M157.847 207.516a2.638 2.638 0 112.887 2.262h-.287a2.587 2.587 0 01-2.6-2.262zm2.376-2.606a2.42 2.42 0 10.262 0h-.262z"/><path fill="#EDC3B4" d="M159.955 209.075a2.555 2.555 0 001.686-4.19 2.555 2.555 0 11-3.232 3.832c.465.28 1.006.406 1.546.358z"/><path fill="#424243" d="M157.77 207.523a2.734 2.734 0 112.996 2.35 2.696 2.696 0 01-2.995-2.35zm.41-.045a2.325 2.325 0 102.075-2.478 2.287 2.287 0 00-2.101 2.484l.025-.006z"/><circle cx="2.702" cy="2.657" r="2.434" fill="#EEEFEF" transform="translate(190.986 244.002)"/><circle cx="2.74" cy="2.657" r="2.434" fill="#EEEFEF" transform="translate(172.462 244.002)"/><path fill="#424243" d="M190.347 246.608a3.36 3.36 0 113.36 3.36 3.366 3.366 0 01-3.36-3.36zm1.852 0a1.507 1.507 0 101.508-1.508 1.514 1.514 0 00-1.501 1.508h-.007zm-20.325 0a3.36 3.36 0 113.36 3.36 3.366 3.366 0 01-3.36-3.36zm1.853 0a1.507 1.507 0 101.507-1.508 1.514 1.514 0 00-1.495 1.508h-.012z"/><path fill="#EEEFEF" d="M195.802 237.614h-27.3l-3.456-24.585c-.051-.684-.837-2.146-3.092-2.51l.888-1.674a4.573 4.573 0 014.056 3.98l3.086 23.128h25.977a3.832 3.832 0 013.833 3.833 3.87 3.87 0 01-3.57 3.832h-27.211v-1.533h26.865a2.19 2.19 0 002.191-2.229 2.255 2.255 0 00-2.267-2.242z"/><path fill="#424243" d="M168.553 243.65v-1.565a.46.46 0 01.46-.46h26.865a1.731 1.731 0 001.731-1.762 1.788 1.788 0 00-1.8-1.763h-27.307a.46.46 0 01-.46-.396l-3.462-24.618c-.045-.543-.76-1.775-2.702-2.095a.46.46 0 01-.332-.67l.888-1.674a.466.466 0 01.466-.243 5.033 5.033 0 014.471 4.376l3.034 22.726h25.55a4.312 4.312 0 01.275 8.61h-27.217a.46.46 0 01-.46-.466zm1.437-7.218a.46.46 0 01-.46-.402l-3.085-23.135a4.114 4.114 0 00-3.347-3.533l-.447.85c1.967.536 2.791 1.916 2.855 2.772l3.404 24.19h26.898a2.708 2.708 0 012.728 2.689 2.644 2.644 0 01-2.651 2.689h-26.412v.638h26.731a3.385 3.385 0 00-.243-6.758H169.99z"/><path fill="#CE534F" d="M163.602 208.75l-3.768-1.387c-.875-.32-1.776-.077-2.006.543-.23.639.3 1.392 1.175 1.712l3.77 1.386.83-2.255z"/><path fill="#424243" d="M162.612 211.425l-3.768-1.386c-1.118-.408-1.77-1.443-1.45-2.305a1.527 1.527 0 011.073-.914 2.555 2.555 0 011.527.096l3.768 1.386c.239.09.36.354.275.594l-.83 2.255a.466.466 0 01-.595.274zm-2.944-3.64a1.635 1.635 0 00-.965-.07.639.639 0 00-.447.338c-.121.326.217.869.9 1.118l3.335 1.226.511-1.386-3.334-1.226z"/><g fill="#424243"><path d="M169.268 232.92l-2.555-18.69a.926.926 0 01.914-1.048h37.015a.926.926 0 01.913 1.048L203 232.92a3.551 3.551 0 01-3.474 3.55h-26.764c-2.708-.006-3.443-1.583-3.494-3.55zm-.945-18.358l2.49 18.868a.75.75 0 010 .134 1.788 1.788 0 001.662 1.917h27.453a1.788 1.788 0 001.66-1.917 1.035 1.035 0 010-.134l2.492-18.868h-35.757z"/><path d="M196.734 236.01a.46.46 0 00.46-.414l2.255-21.328a.462.462 0 00-.92-.096l-2.255 21.328a.46.46 0 00.41.51h.05zm-4.624 0a.46.46 0 00.46-.427l1.61-21.328a.46.46 0 00-.429-.498.46.46 0 00-.498.428l-1.629 21.328a.46.46 0 00.428.498h.058zm-4.171 0a.46.46 0 00.46-.453l.453-21.327a.463.463 0 00-.926 0l-.454 21.327a.46.46 0 00.454.473l.013-.02zm-13.203 0h.05a.46.46 0 00.41-.51l-2.255-21.328a.462.462 0 10-.92.096l2.255 21.328a.46.46 0 00.46.415zm4.401 0h.032a.46.46 0 00.428-.497l-1.578-21.328a.461.461 0 10-.92.07l1.578 21.328a.46.46 0 00.46.428zm4.183.001a.46.46 0 00.454-.473l-.453-21.328a.485.485 0 00-.473-.453.46.46 0 00-.454.473l.454 21.327a.46.46 0 00.473.454z"/><path d="M168.201 218.522h35.975a.463.463 0 100-.926H168.2a.463.463 0 100 .926zm.792 4.171h33.975a.463.463 0 000-.926h-33.975a.463.463 0 000 .926zm.339 4.177h33.298a.463.463 0 100-.926h-33.298a.463.463 0 100 .926zm.332 4.178h32.404a.463.463 0 100-.926h-32.404a.463.463 0 100 .926z"/></g><ellipse cx="160.024" cy="210.606" fill="#F3D3C5" rx="2.983" ry="2.887" transform="rotate(-6.02 160.024 210.606)"/><path fill="#272525" d="M156.934 210.927a2.949 2.949 0 01.683-2.21 3.136 3.136 0 012.07-1.124 3.01 3.01 0 11.639 5.985h-.339a3.047 3.047 0 01-3.053-2.65zm2.798-3.072a2.887 2.887 0 00-1.917 1.015 2.696 2.696 0 00-.638 2.025 2.855 2.855 0 102.861-3.06l-.306.02z"/><path fill="#EDC3B4" d="M159.419 212.76a3.021 3.021 0 001.986-4.937 3.015 3.015 0 11-3.832 4.541 2.983 2.983 0 001.846.396z"/><path fill="#424243" d="M156.819 210.934a3.194 3.194 0 116.337-.802 3.194 3.194 0 01-6.337.802zm.479-.051a2.74 2.74 0 102.446-2.92 2.696 2.696 0 00-2.446 2.926v-.006z"/><circle cx="160.913" cy="210.71" r="1.846" fill="#AD5151"/><path fill="#464647" d="M158.793 210.71a2.12 2.12 0 114.241 0 2.12 2.12 0 01-4.241 0zm.555 0a1.565 1.565 0 101.565-1.565 1.571 1.571 0 00-1.565 1.565z"/><path fill="#F5D5C7" d="M150.074 245.611h-2.32v-21.967h2.32z"/><path fill="#424243" d="M147.519 245.611v-21.973a.243.243 0 01.243-.236h2.344c.134 0 .242.109.242.243v21.966a.243.243 0 01-.242.243h-2.319a.243.243 0 01-.268-.243zm2.318-21.717h-1.84v21.487h1.84v-21.487z"/><path fill="#543E27" d="M148.273 249.227l.268-1.693 2.842 1.277a8.387 8.387 0 003.392.754h.74c.157.002.311-.029.454-.09 1.22-.638-2.35-2.114-2.746-2.344-.882-.504-2-1.277-2.932-1.762h-2.197c-.607.044-.556.12-.556.523v3.348c0 .089.23.172.428.217a.25.25 0 00.307-.23z"/><path fill="#424243" d="M154.775 249.75a8.553 8.553 0 01-3.481-.773l-2.555-1.162-.224 1.418a.466.466 0 01-.556.383c-.402-.09-.594-.23-.594-.428V245.764c0-.486.135-.64.754-.64h2.21a.217.217 0 01.102 0c.543.295 1.144.64 1.725 1.03.434.267.843.523 1.214.734l.345.172c1.654.792 2.753 1.444 2.759 2.038a.562.562 0 01-.37.51 1.306 1.306 0 01-.543.116h-.671l-.115.025zm-6.669-4.209a1.278 1.278 0 00-.344.051 1.31 1.31 0 000 .166v3.354c.084.037.171.064.261.083l.269-1.693a.217.217 0 01.3-.16l2.842 1.278a8.125 8.125 0 003.303.734h.728a.952.952 0 00.37-.07c.039 0 .134-.07.134-.121 0-.205-.44-.639-2.516-1.655l-.377-.185a35.797 35.797 0 01-1.227-.747c-.555-.345-1.136-.71-1.654-.99l-2.089-.045z"/><path fill="#F5D5C7" d="M145.366 245.611h-2.32v-21.967h2.32z"/><path fill="#424243" d="M142.805 245.611v-21.973a.243.243 0 01.243-.236h2.318c.134 0 .243.109.243.243v21.966a.243.243 0 01-.243.243h-2.318a.243.243 0 01-.243-.243zm2.318-21.717h-1.84v21.487h1.84v-21.487z"/><path fill="#543E27" d="M143.559 249.227l.268-1.693 2.842 1.277a8.387 8.387 0 003.392.754h.74c.157.002.311-.029.454-.09 1.22-.638-2.35-2.114-2.746-2.344-.882-.504-2-1.277-2.932-1.762h-2.197c-.607.044-.556.12-.55.523.007.403 0 .85 0 1.278v2.07c0 .089.23.172.428.217a.25.25 0 00.3-.23z"/><path fill="#424243" d="M150.067 249.75a8.553 8.553 0 01-3.48-.773l-2.556-1.162-.223 1.418a.473.473 0 01-.198.313.46.46 0 01-.358.07c-.402-.09-.594-.23-.594-.428V245.764c0-.486.134-.64.754-.64h2.21a.217.217 0 01.102 0c.543.295 1.143.64 1.725 1.03.434.267.843.523 1.213.734l.345.172c1.654.792 2.753 1.444 2.76 2.038a.562.562 0 01-.371.51c-.17.077-.356.117-.543.116h-.67l-.116.025zm-6.668-4.209a1.278 1.278 0 00-.345.051 1.31 1.31 0 000 .166v3.354c.084.037.172.064.262.083l.268-1.693a.217.217 0 01.3-.16l2.843 1.278a8.125 8.125 0 003.302.734h.728a.952.952 0 00.37-.07c.039 0 .135-.07.135-.121 0-.205-.44-.639-2.517-1.655l-.377-.185a35.795 35.795 0 01-1.226-.747c-.556-.345-1.137-.71-1.654-.99l-2.09-.045z"/><path fill="#475159" d="M140.122 210.787a.268.268 0 01.256-.192h.555c.148 0 .269-.12.269-.268a.268.268 0 01.268-.268h11.574a.268.268 0 01.268.268l-.204 15.592c0 .148-.12.268-.268.268h-11.408a.262.262 0 01-.237-.147 24.113 24.113 0 01-1.245-4.548c-1.003-5.979-.952-7.115.172-10.705z"/><path fill="#424243" d="M140.831 226.232a24.375 24.375 0 01-1.277-4.657c-.997-5.972-.978-7.192.185-10.89a.639.639 0 01.639-.467h.434a.639.639 0 01.639-.53h11.593a.64.64 0 01.639.67l-.205 15.58a.639.639 0 01-.638.677h-11.408a.639.639 0 01-.6-.383zm12.079-15.752h-11.325a.639.639 0 01-.639.53h-.453c-1.093 3.5-1.1 4.618-.135 10.431a24.911 24.911 0 001.176 4.363h11.19l.186-15.324z"/><path fill="#9B856B" d="M139.324 190.621c4.024-3.468 3.436-10.705 1.635-15.674l.07-.115a4.26 4.26 0 011.207-1.035 41.968 41.968 0 012.555-1.501 8.61 8.61 0 012.076-.83 10.01 10.01 0 013.437.044c.467.02.922.16 1.322.403 1.041.766 2.101 1.277 2.855 2.376a9.415 9.415 0 011.386 3.449c.639 3.13.192 6.202.128 9.351-.013.5 0 1.002.038 1.501.028.46.125.912.288 1.342.172.428.517.728.69 1.137.396.939-.192 1.986-.882 2.612a7.371 7.371 0 01-4.701 1.61c-1.693.07-3.385-.14-5.072 0a33.094 33.094 0 01-4.337.3c-1.213-.083-3.034-.6-3.443-1.916-.28-.895.16-1.655.505-2.434.109-.217.166-.415.243-.62z"/><path fill="#424243" d="M142.026 195.827c-1.425-.096-3.245-.702-3.68-2.101a3.123 3.123 0 01.384-2.332l.127-.293c.077-.167.14-.352.211-.569a.268.268 0 01.077-.121c1.763-1.52 2.766-3.967 2.912-7.084a22.356 22.356 0 00-1.347-8.304.268.268 0 010-.23l.07-.102a4.51 4.51 0 011.277-1.105 30.968 30.968 0 012.6-1.514 8.942 8.942 0 012.14-.856 10.322 10.322 0 013.526.039 3.028 3.028 0 011.443.453c.256.185.518.364.767.53a7.358 7.358 0 012.153 1.917 9.658 9.658 0 011.43 3.545c.383 2.298.462 4.637.237 6.956-.045.804-.09 1.635-.109 2.459-.013.492 0 .984.038 1.475.023.437.114.868.269 1.278.085.188.192.366.319.53.144.188.266.391.364.607.46 1.092-.223 2.255-.945 2.912-1.124 1.022-2.766 1.59-4.867 1.68-.805.032-1.617 0-2.402 0-.786 0-1.782-.064-2.664 0-.492 0-.99.09-1.475.147a20.12 20.12 0 01-2.293.173c-.147-.07-.358-.07-.562-.09zm7.026-.824c.773 0 1.577.058 2.357 0 1.973-.083 3.5-.607 4.535-1.545.639-.588 1.143-1.527.817-2.313a2.65 2.65 0 00-.306-.498 3.098 3.098 0 01-.383-.639 4.727 4.727 0 01-.307-1.424 14.563 14.563 0 01-.038-1.527c0-.83.064-1.667.108-2.472a25.856 25.856 0 00-.23-6.815 9.134 9.134 0 00-1.347-3.347 6.943 6.943 0 00-2.006-1.77c-.256-.172-.524-.35-.786-.542a2.555 2.555 0 00-1.194-.352 9.766 9.766 0 00-3.347-.044 8.431 8.431 0 00-2.012.804c-.869.454-1.731.952-2.555 1.489a4.03 4.03 0 00-1.124.958c1.916 5.455 2.158 12.398-1.706 15.796a6.506 6.506 0 01-.204.543l-.134.3a2.683 2.683 0 00-.358 1.948c.383 1.22 2.197 1.661 3.194 1.731.935.033 1.871-.018 2.797-.153a29.11 29.11 0 011.501-.147c.364 0 .728-.032 1.099-.032.581.013 1.124.032 1.66.051h-.031z"/><path fill="#404041" d="M153.319 211.956l-13.657.153-.287 2.619h13.944z" opacity=".49"/><path fill="#FFF" d="M143.955 192.123c.755-.33 1.546-.57 2.357-.716a11.715 11.715 0 016.342.767v19.8h-8.776l.077-19.851z"/><path fill="#424243" d="M143.718 191.944l.16-.07a10.948 10.948 0 012.414-.735 11.977 11.977 0 016.484.78l.172.063v20.261h-9.338l.108-20.3zm8.7.408a11.357 11.357 0 00-6.03-.69c-.734.136-1.451.35-2.14.64l-.076 19.41h8.227l.019-19.36z"/><path fill="#424243" d="M152.22 211.981v-19.514c-2.88-1.04-5.391-1.06-7.857-.057l-.076 19.578h-.843l.076-19.86a.422.422 0 01.256-.382c2.842-1.233 5.378-1.572 8.878.05.16.077.41.205.41.384v19.801h-.844z"/><path fill="#EFC5B6" d="M148.19 194.62a2.715 2.715 0 01-2.715-2.715v-2.625a2.715 2.715 0 015.43 0v2.625c0 1.5-1.216 2.715-2.716 2.715z"/><path fill="#424243" d="M145.34 191.905v-2.625a2.849 2.849 0 015.698 0v2.625a2.849 2.849 0 01-5.697 0zm.269-2.625v2.625a2.584 2.584 0 105.167 0v-2.625a2.584 2.584 0 10-5.167 0z"/><path fill="#EDC3B4" d="M155.011 185.978c-.083 2.44-3.06 4.324-6.624 4.26h-.12c-3.546-.064-6.471-2.031-6.56-4.471l-.333-9.396c-.096-2.734 2.97-4.995 6.867-4.989h.134c3.928 0 7.026 2.313 6.962 5.11l-.326 9.486z"/><path fill="#F3D3C5" d="M149.678 171.497l-.051 18.684c2.989-.326 5.314-2.044 5.39-4.203l.326-9.498c.077-2.447-2.363-4.536-5.665-4.983z"/><path fill="#424243" d="M148.413 190.347h-.147a8.661 8.661 0 01-4.644-1.354 4.126 4.126 0 01-2.037-3.194l-.339-9.396c-.102-2.785 3.015-5.11 6.975-5.11h.16a8.655 8.655 0 015.11 1.546 4.388 4.388 0 012.006 3.653l-.332 9.499c-.109 2.478-3.143 4.407-6.752 4.356zm-.192-18.811c-3.832 0-6.809 2.203-6.72 4.867l.327 9.396a3.922 3.922 0 001.916 3.04 8.374 8.374 0 004.471 1.31h.147c3.487.057 6.387-1.782 6.477-4.158l.32-9.492a4.171 4.171 0 00-1.917-3.469 8.374 8.374 0 00-4.912-1.488h-.14l.031-.006z"/><ellipse cx="152.955" cy="183.091" fill="#C37E77" rx="1.226" ry="1.054"/><ellipse cx="146.152" cy="183.091" fill="#C37E77" rx="1.226" ry="1.054"/><path fill="#424243" d="M149.793 183.461a.728.728 0 01-.473-.166.128.128 0 11.166-.192.524.524 0 00.562.039.492.492 0 00.25-.473.639.639 0 00-.333-.466.862.862 0 00-.268-.102h-.102v-.952a.128.128 0 11.255 0v.728c.085.024.166.059.243.102.244.13.414.366.46.639a.747.747 0 01-.377.715.78.78 0 01-.383.128z"/><path fill="#404041" d="M151.192 186.144c-.05 0-.095.03-.115.077a1.776 1.776 0 01-3.194.114.128.128 0 00-.121-.07.128.128 0 00-.11.192 2.038 2.038 0 003.66-.134.128.128 0 00-.127-.18h.007zm2.523 25.837h-1.917v-2.957l.039-16.876s-.684-1.067-.23-.766c2.088.453 3.302 2.555 3.775 4.311.23 1.016.332 2.057.3 3.098v13.56l-2-.12.033-.25zm-15.355 0v-13.414c0-3.583 2.9-6.112 6.597-7.026v20.44h-6.598z"/><path fill="#424243" d="M137.97 198.567c0-3.474 2.708-6.387 6.904-7.403l.492-.121v21.334h-7.396v-13.81zm6.598-6.496c-4.26 1.22-5.8 4.12-5.8 6.496v13.012h5.8V192.07z"/><path fill="#404041" d="M151.243 211.981v-20.184a2.625 2.625 0 012.625 2.625v17.56h-2.625z"/><path fill="#424243" d="M153.619 211.981V194.41a2.363 2.363 0 00-2.108-2.331v19.903h-.53v-20.44h.268a2.894 2.894 0 012.913 2.875v17.572l-.543-.007zm-.601-31.331c.247 0 .448-.2.448-.447v-.408a.447.447 0 10-.894 0v.408a.447.447 0 00.446.448zm-6.515 0c.247 0 .447-.2.447-.447v-.408a.447.447 0 00-.894 0v.408a.447.447 0 00.447.448z"/><path fill="#404041" d="M159.489 213.073a794.884 794.884 0 01-.185-3.896c-9.115-.575-14.615-5.41-16.346-14.378l-3.883.313c1.884 11.037 9.236 17.495 20.414 17.961z"/><path fill="#B29A79" d="M140.013 185.352v-.997c.045-2.178.077-4.362.115-6.54a8.898 8.898 0 01.53-3.482 7.122 7.122 0 012.038-2.638c2.555-2.03 6.592-1.916 9.46-.638 2.51 1.13 4.433 3.532 4.376 6.336.01.37-.033.74-.128 1.099-.115.37-.48.945-.907.951a1.66 1.66 0 01-.741-.325 10.546 10.546 0 01-1.68-1.38c-1.137-1.086-2.076-2.28-3.104-3.45-.1.325-.288.615-.543.837a19.859 19.859 0 01-3.328 2.498 28.15 28.15 0 01-3.967 2.172c.556 4.075 0 8.393-2.823 10.858a18.2 18.2 0 00.702-5.301z"/><path fill="#424243" d="M139.177 190.845a.268.268 0 01-.109-.307 17.97 17.97 0 00.67-5.193v-.99c.026-1.196.048-2.393.065-3.59 0-.983.017-1.969.05-2.957a9.166 9.166 0 01.55-3.577 7.435 7.435 0 012.114-2.734 8.048 8.048 0 014.76-1.628c1.708-.069 3.41.255 4.975.945 2.81 1.277 4.592 3.832 4.535 6.585a4.1 4.1 0 01-.14 1.176c-.147.453-.575 1.13-1.163 1.137a1.622 1.622 0 01-.818-.326l-.064-.038a10.82 10.82 0 01-1.724-1.412 33.15 33.15 0 01-2.3-2.51l-.543-.64a2.52 2.52 0 01-.434.531 20.159 20.159 0 01-3.372 2.555 29.568 29.568 0 01-3.833 2.114c.837 6.535-1.475 9.613-2.945 10.859a.268.268 0 01-.319 0h.045zm11.012-16.742l.824.959a32.25 32.25 0 002.26 2.472 10.38 10.38 0 001.636 1.347l.07.045c.158.118.338.2.53.243.237 0 .543-.41.64-.767a3.64 3.64 0 00.114-1.022c.051-2.516-1.603-4.905-4.222-6.087-2.619-1.182-6.694-1.386-9.185.639a6.898 6.898 0 00-1.961 2.555 8.649 8.649 0 00-.505 3.372c0 .984-.017 1.968-.05 2.951 0 1.197-.022 2.393-.065 3.59v.991a21.717 21.717 0 01-.428 4.362c1.316-1.52 2.779-4.471 2.038-9.9a.268.268 0 01.16-.282 28.162 28.162 0 003.928-2.152 19.686 19.686 0 003.283-2.466c.222-.187.386-.433.473-.709a.268.268 0 01.198-.192h.064a.27.27 0 01.198.051z"/><path fill="#424243" d="M142.153 180.159a1.27 1.27 0 00-.696.326 1.137 1.137 0 00-.3.83 1.2 1.2 0 00.856 1.207c.086.018.174.028.262.032a.23.23 0 01.223.173.735.735 0 010 .223.14.14 0 010 .07c-.057.096-.37 0-.453 0a1.916 1.916 0 01-.39-.127 1.61 1.61 0 01-.709-.6 1.776 1.776 0 01-.249-.959c-.024-.45.146-.89.466-1.207a1.846 1.846 0 011.233-.473c.121 0 .236-.07.236.058v.179c0 .125-.098.23-.223.236l-.256.032z"/><path fill="#EFC5B6" d="M142.747 182.79s-1.73 0-1.737-1.45c-.006-1.45 1.73-1.45 1.73-1.45l.007 2.9z"/><path fill="#DDAB9B" d="M142.3 182.21a.837.837 0 01-.817-.876.792.792 0 01.81-.837l.007 1.712z"/><ellipse cx="159.86" cy="210.865" fill="#F3D3C5" rx="2.849" ry="2.759" transform="rotate(-6.02 159.86 210.865)"/><path fill="#272525" d="M157.994 213.099a2.804 2.804 0 01-1.073-1.916 2.913 2.913 0 012.638-3.162 2.99 2.99 0 012.166.639 2.804 2.804 0 01.427 4.03 2.99 2.99 0 01-1.992 1.054h-.326a2.977 2.977 0 01-1.84-.645zm1.59-4.874a2.702 2.702 0 00-2.452 2.926c.074.705.435 1.35.996 1.782a2.81 2.81 0 003.865-.409 2.593 2.593 0 00-.396-3.73 2.766 2.766 0 00-1.712-.588l-.3.02z"/><path fill="#EDC3B4" d="M159.285 212.933a2.894 2.894 0 001.916-4.72 2.88 2.88 0 11-3.647 4.35 2.858 2.858 0 001.73.37z"/><path fill="#424243" d="M156.8 211.19a3.085 3.085 0 113.379 2.65 3.04 3.04 0 01-3.38-2.65zm.46-.052a2.625 2.625 0 102.344-2.791 2.555 2.555 0 00-2.35 2.791h.006z"/><path fill="#EDD661" d="M291.8 172.398l11.58 27.498 25.869 6.164 4.548 33.656h-111.8l3.94-67.318z"/><path fill="#EEEFEF" d="M320.581 215.807h9.824a1.163 1.163 0 000-2.318h-9.824a1.163 1.163 0 000 2.318z"/><path fill="#CD6C65" d="M325.493 220.547h4.912a1.163 1.163 0 000-2.319h-4.912a1.163 1.163 0 100 2.319z"/><path fill="#EEEFEF" d="M223.562 215.807h9.824a1.163 1.163 0 000-2.318h-9.824a1.163 1.163 0 100 2.318z"/><path fill="#CD6C65" d="M223.562 220.547h4.912a1.163 1.163 0 100-2.319h-4.912a1.163 1.163 0 100 2.319z"/><path fill="#424243" d="M221.154 240.514a1.163 1.163 0 01-.313-.862l3.934-67.318a1.163 1.163 0 011.156-1.092H291.8c.466.001.885.28 1.067.709l11.35 26.955 25.295 6.023c.466.112.815.497.881.971l4.555 33.63a1.163 1.163 0 01-1.15 1.316H222.016a1.163 1.163 0 01-.862-.332zM328.2 207.005l-25.096-5.972a1.163 1.163 0 01-.798-.677l-11.28-26.79H227.03l-3.832 64.993h109.225l-4.222-31.554z"/><path fill="#6D6D6D" d="M337.016 243.632h-14.94v-3.935h14.94z"/><path fill="#424243" d="M320.913 243.631v-3.935c0-.642.52-1.162 1.163-1.162h14.94c.642 0 1.163.52 1.163 1.162v3.935a1.163 1.163 0 01-1.163 1.163h-14.94c-.642 0-1.163-.52-1.163-1.163zm14.94-2.772h-12.647v1.61h12.648v-1.61z"/><path fill="#6D6D6D" d="M233.507 243.695h-14.94v-3.935h14.94z"/><path fill="#424243" d="M217.404 243.701v-3.934c0-.642.52-1.163 1.163-1.163h14.94c.642 0 1.163.52 1.163 1.163v3.934c0 .642-.521 1.163-1.163 1.163H218.56a1.163 1.163 0 01-1.156-1.163zm14.94-2.772H219.73v1.61h12.622l-.007-1.61z"/><circle cx="312.903" cy="237.704" r="10.673" fill="#6D6D6D"/><path fill="#424243" d="M301.067 237.704c0-6.537 5.3-11.836 11.836-11.836 6.537 0 11.836 5.299 11.836 11.836 0 6.536-5.299 11.836-11.836 11.836-6.534-.007-11.829-5.303-11.836-11.836zm2.319 0a9.517 9.517 0 109.517-9.518 9.524 9.524 0 00-9.498 9.518h-.019z"/><circle cx="312.903" cy="237.704" r="4.835" fill="#EEEFEF"/><path fill="#424243" d="M306.905 237.704a5.998 5.998 0 115.998 5.997 6.004 6.004 0 01-5.998-5.997zm2.32 0a3.673 3.673 0 103.672-3.673 3.68 3.68 0 00-3.666 3.673h-.007z"/><path fill="#EEEFEF" d="M297.573 199.896l-9.555-22.701h-56.88l-1.33 22.701z"/><path fill="#FFF" d="M278.596 185.71h12.513a1.163 1.163 0 100-2.32h-12.513a1.163 1.163 0 100 2.32zm-18.364 6.86h12.775a1.163 1.163 0 000-2.319h-12.775a1.163 1.163 0 100 2.319zm-29.522-6.86h12.2a1.163 1.163 0 000-2.32h-12.2a1.163 1.163 0 000 2.32zm14.499 6.86h4.79a1.163 1.163 0 100-2.319h-4.79a1.163 1.163 0 000 2.319z"/><path fill="#424243" d="M228.965 200.695a1.163 1.163 0 01-.312-.863l1.296-22.707a1.163 1.163 0 011.156-1.093h56.849c.465.002.885.28 1.067.71l9.58 22.707a1.163 1.163 0 01-1.066 1.61H229.81c-.32 0-.624-.133-.844-.364zm58.28-22.357h-55.016l-1.194 20.383h64.795l-8.585-20.383z"/><circle cx="240.482" cy="237.704" r="10.673" fill="#6D6D6D"/><path fill="#424243" d="M228.672 237.704c0-6.537 5.299-11.836 11.836-11.836s11.836 5.299 11.836 11.836c0 6.536-5.3 11.836-11.836 11.836-6.534-.007-11.83-5.303-11.836-11.836zm2.318 0a9.517 9.517 0 109.518-9.518 9.524 9.524 0 00-9.537 9.518h.02z"/><circle cx="240.482" cy="237.704" r="4.835" fill="#EEEFEF"/><path fill="#424243" d="M234.49 237.704a5.998 5.998 0 115.999 5.997 6.004 6.004 0 01-5.998-5.997zm2.32 0a3.673 3.673 0 103.672-3.673 3.68 3.68 0 00-3.673 3.673z"/><path fill="#6D6D6D" d="M222.878 219.263l1.603-22.65a8.393 8.393 0 00-8.373 7.786l-.499 7.026a7.288 7.288 0 007.27 7.838z"/><path fill="#424243" d="M216.695 217.73a8.476 8.476 0 01-2.248-6.388l.498-7.026a9.581 9.581 0 019.536-8.86 1.163 1.163 0 011.157 1.246l-1.604 22.65a1.163 1.163 0 01-1.156 1.08 8.476 8.476 0 01-6.183-2.702zm.569-13.241l-.499 7.026a6.132 6.132 0 005.034 6.47l1.424-20.127a7.263 7.263 0 00-5.96 6.637v-.006zm42.968 36.389c.642 0 1.163-.52 1.163-1.162v-62.521a1.163 1.163 0 10-2.319 0v62.52c0 .64.517 1.16 1.156 1.163zm5.295-31.784h10.412a1.163 1.163 0 100-2.319h-10.412a1.163 1.163 0 000 2.32zm-21.034 0h10.444a1.163 1.163 0 100-2.319h-10.444a1.163 1.163 0 100 2.32z"/><path fill="#424243" d="M327.78 233.858l5.059-.044a1.163 1.163 0 001.15-1.17 1.182 1.182 0 00-1.17-1.15l-4.177.04a16.537 16.537 0 00-31.49-.04h-40.944a16.537 16.537 0 00-31.477 0h-2.338a1.163 1.163 0 000 2.32h3.194a1.163 1.163 0 001.168-.863 14.212 14.212 0 0127.467 0 1.16 1.16 0 001.124.869h42.68c.53 0 .991-.357 1.125-.869a14.212 14.212 0 0127.505.039c.133.511.595.868 1.124.868z"/><path d="M273.525 253.091h-52.052a.881.881 0 01-.875-.875.881.881 0 01.875-.875h52.045a.881.881 0 01.875.875.881.881 0 01-.868.875zM278.437 253.091h-1.278a.881.881 0 01-.875-.875.881.881 0 01.875-.875h1.278a.881.881 0 01.875.875.881.881 0 01-.875.875zM322.12 257.773h-50.652a.939.939 0 01-.933-.933.939.939 0 01.933-.932h50.652c.514.003.93.419.933.932a.939.939 0 01-.933.933zM327.85 257.773h-2.338a.939.939 0 01-.932-.933.939.939 0 01.932-.932h2.338c.514.003.93.419.933.932a.939.939 0 01-.933.933z" fill="#444445" opacity=".48"/><path fill="#59595B" d="M64.59 210.838c-4.822-1.546-9.543-1.667-14.142 0-1.878 0-3.404-2.044-3.404-4.567s1.526-4.567 3.404-4.567H64.59c1.878 0 3.405 2.044 3.405 4.567s-1.52 4.567-3.405 4.567z"/><path fill="#424243" d="M64.59 211.24h-.134a23.544 23.544 0 00-7.16-1.181c-2.292 0-4.566.4-6.72 1.181h-.115c-2.101 0-3.832-2.229-3.832-4.97 0-2.74 1.711-4.975 3.832-4.975h14.142c2.101 0 3.832 2.23 3.832 4.976s-1.743 4.97-3.845 4.97zm-7.288-2.018c2.496.02 4.973.426 7.346 1.2 1.622-.044 2.938-1.916 2.938-4.158 0-2.242-1.348-4.158-2.996-4.158H50.461c-1.654 0-2.996 1.865-2.996 4.158 0 2.294 1.278 4.108 2.932 4.159a20.491 20.491 0 016.905-1.201z"/><path fill="#6D6D6D" d="M58.177 206.597H56.9c-5.645 0-10.22-4.576-10.22-10.22v-3.61c0-5.326 4.58-9.842 10.22-10.22h1.277c5.644 0 10.22 4.576 10.22 10.22v3.61c0 5.644-4.576 10.22-10.22 10.22z"/><path fill="#424243" d="M58.177 207.223H56.9c-5.973-.018-10.81-4.855-10.827-10.827v-3.61c0-5.595 4.829-10.45 10.788-10.82h1.335c5.955.039 10.768 4.866 10.789 10.82v3.61c-.018 5.964-4.843 10.798-10.808 10.827zM56.9 183.212c-5.302.345-9.582 4.63-9.582 9.581v3.61a9.581 9.581 0 009.582 9.58h1.277a9.581 9.581 0 009.581-9.58v-3.61a9.581 9.581 0 00-9.58-9.581H56.9z"/><path fill="#D0534F" d="M46.68 193.438h21.692v2.261H46.68z"/><path fill="#424243" d="M68.346 196.32H46.629a.639.639 0 01-.64-.64v-2.26a.64.64 0 01.64-.64h21.717a.64.64 0 01.639.64v2.26a.639.639 0 01-.639.64zm-21.079-1.278h20.44v-1.01h-20.44v1.01z"/><path fill="#DDB99F" d="M51.681 177.278c-.758 0-1.373.615-1.373 1.373a1.277 1.277 0 001.367 1.323l.006-2.696z"/><path fill="#424243" d="M51.668 180.287c-.47 0-.925-.173-1.277-.486a1.552 1.552 0 01-.428-1.143 1.654 1.654 0 011.68-1.687.313.313 0 01.223.09.309.309 0 01.096.223v2.696c0 .17-.136.31-.306.313l.012-.006zm-.3-2.638a.977.977 0 00-.747 1.009.939.939 0 00.249.702c.14.13.311.221.498.262v-1.973z"/><path fill="#CFAC98" d="M51.464 177.847a.811.811 0 00-.811.81.766.766 0 00.805.78l.006-1.59z"/><path fill="#DDB99F" d="M63.555 177.278c.759 0 1.374.615 1.374 1.373a1.277 1.277 0 01-1.367 1.323l-.007-2.696z"/><path fill="#424243" d="M63.568 180.287a.313.313 0 01-.306-.313v-2.696c0-.084.035-.165.095-.224a.287.287 0 01.224-.089 1.654 1.654 0 011.68 1.686 1.55 1.55 0 01-.428 1.144 1.916 1.916 0 01-1.265.492zm.3-2.638v1.967a1.06 1.06 0 00.499-.262.939.939 0 00.249-.703.977.977 0 00-.741-1.002h-.007z"/><path fill="#CFAC98" d="M63.766 177.847a.81.81 0 01.811.81.766.766 0 01-.804.78l-.007-1.59z"/><path fill="#D6AE99" d="M63.581 184.822c0 2.612-2.664 4.726-5.94 4.714h-.115c-3.27 0-5.922-2.134-5.915-4.746v-9.582c0-2.612 2.663-4.726 5.94-4.714h.115c3.27 0 5.921 2.134 5.915 4.746v9.582z"/><path fill="#DDB99F" d="M57.692 170.546v19.022c3.25 0 5.883-2.115 5.889-4.714v-9.582c.032-2.618-2.619-4.726-5.89-4.726z"/><path fill="#424243" d="M57.66 189.65h-.134a6.828 6.828 0 01-4.254-1.424 4.395 4.395 0 01-1.77-3.436v-9.582c0-2.663 2.709-4.828 6.03-4.828h.134a6.828 6.828 0 014.293 1.443 4.395 4.395 0 011.769 3.437v9.58c-.045 2.652-2.747 4.81-6.068 4.81zm-.102-19.021c-3.194 0-5.8 2.063-5.807 4.605v9.581a4.171 4.171 0 001.687 3.264 6.605 6.605 0 004.12 1.374h.134c3.193 0 5.8-2.064 5.806-4.606v-9.581a4.171 4.171 0 00-1.686-3.264 6.605 6.605 0 00-4.12-1.373h-.134z"/><path fill="#424243" d="M57.66 189.81h-.134a6.988 6.988 0 01-4.357-1.456 4.548 4.548 0 01-1.826-3.558v-9.581c0-2.747 2.784-4.982 6.189-4.982h.134a6.982 6.982 0 014.356 1.456 4.548 4.548 0 011.827 3.558v9.581c-.013 2.747-2.785 4.982-6.19 4.982zm-.102-19.162v.153c-3.111 0-5.647 1.993-5.653 4.471v9.582a4.018 4.018 0 001.628 3.142 6.445 6.445 0 004.018 1.342h.115c3.13 0 5.666-1.993 5.672-4.472v-9.58a4.018 4.018 0 00-1.629-3.143 6.445 6.445 0 00-4.017-1.342h-.115l-.02-.153z"/><path fill="#DDB99F" d="M63.044 182.247v-6.95l-5.352-.165v3.257a.824.824 0 00-.256.096.639.639 0 00-.332.473.517.517 0 00.262.498c.19.105.423.087.594-.045v2.836h5.084z"/><path fill="#F1E8DB" d="M57.118 181.639l.003-.92a.517.517 0 011.035.004l-.003.92a.517.517 0 01-1.035-.004z"/><circle cx="54.653" cy="178.198" r="1" fill="#424243" transform="rotate(-89.85 54.653 178.198)"/><circle cx="60.622" cy="178.198" r="1" fill="#424243" transform="rotate(-89.85 60.622 178.198)"/><path fill="#424243" d="M60.106 177.042a.639.639 0 01.83.032c.167.14.41-.103.243-.243a.996.996 0 00-.907-.243 1.01 1.01 0 00-.434.243c-.16.153.083.396.243.243l.025-.032zm-5.876 0a.639.639 0 01.83.032c.166.14.409-.103.243-.243a.996.996 0 00-.907-.243 1.01 1.01 0 00-.435.243c-.16.153.083.396.243.243l.026-.032z"/><ellipse cx="60.764" cy="179.82" fill="#C37E77" rx="1.028" ry="1"/><ellipse cx="54.638" cy="179.82" fill="#C37E77" rx="1.028" ry="1"/><path fill="#424243" d="M64.27 176.518c-.638-1.207-.638-2.702-1.45-3.833a4.982 4.982 0 00-1.845-1.584 7.665 7.665 0 00-4.471-.753 7.288 7.288 0 00-2.46.804 5.314 5.314 0 00-1.852 1.604 4.471 4.471 0 00-.639 2.146v1.13a6.02 6.02 0 010 1.074c0 .134.16.038.25 0a2.83 2.83 0 00.408-.205 4.037 4.037 0 001.118-1.003 6.758 6.758 0 001.13-2.376 2.9 2.9 0 00.282.147 66.26 66.26 0 003.985 1.948c1.04.485 2.107.911 3.194 1.278.575.24 1.203.324 1.82.243.2-.04.385-.133.537-.269.237-.217.083-.191-.006-.351z"/><path fill="#424243" d="M51.656 177.572a.473.473 0 01-.262-.077l-.07-.057a.422.422 0 01-.141-.16.428.428 0 010-.326c0-.147 0-.555-.038-.715-.039-.16 0-.192 0-.217v-1.17c.031-.83.275-1.64.709-2.35a5.749 5.749 0 011.992-1.737 7.933 7.933 0 012.6-.856 8.08 8.08 0 014.714.792c.8.398 1.49.988 2.006 1.718a6.81 6.81 0 01.894 2.223c.13.565.322 1.113.575 1.635.13.093.211.238.223.396a.639.639 0 01-.217.454c-.208.19-.464.32-.74.377a3.916 3.916 0 01-2.045-.256 31.42 31.42 0 01-3.257-1.277 75.322 75.322 0 01-3.833-1.866 6.796 6.796 0 01-1.054 2.019c-.34.445-.76.822-1.239 1.111-.151.09-.309.167-.473.23a.875.875 0 01-.344.109zm2.855-4.471c.079 0 .156.022.223.064.077.044.156.084.237.12a67.11 67.11 0 003.979 1.949c1.04.473 2.107.886 3.194 1.24a3.194 3.194 0 001.59.236l.14-.045a8.719 8.719 0 01-.638-1.763 6.1 6.1 0 00-.773-1.955 4.541 4.541 0 00-1.686-1.443 7.186 7.186 0 00-4.197-.716c-.8.105-1.574.352-2.286.729a4.867 4.867 0 00-1.712 1.469 4.043 4.043 0 00-.569 1.916v1.616h.032a3.59 3.59 0 00.971-.9 6.317 6.317 0 001.06-2.224.434.434 0 01.256-.287.428.428 0 01.179-.006z"/><path fill="#424243" d="M57.634 179.68a.677.677 0 01-.683-.728.792.792 0 01.409-.588.958.958 0 01.178-.083v-.575a.153.153 0 01.307 0v.824h-.128a.677.677 0 00-.21.077.492.492 0 00-.256.35.364.364 0 00.185.346.39.39 0 00.415 0 .154.154 0 01.198.236.639.639 0 01-.415.14z"/><path fill="#DDB99F" d="M46.897 204.284a1.405 1.405 0 01-1.405-1.405v-10.54a1.405 1.405 0 011.405-1.405 1.405 1.405 0 011.405 1.406v10.539a1.405 1.405 0 01-1.405 1.405z"/><path fill="#424243" d="M46.897 204.91a2.038 2.038 0 01-2.031-2.031v-10.54a2.031 2.031 0 114.062 0v10.54a2.038 2.038 0 01-2.031 2.031zm0-13.356a.786.786 0 00-.78.78v10.539a.782.782 0 101.566 0v-10.54a.786.786 0 00-.786-.779z"/><path fill="#FFF" d="M49.005 186.361c-1.833-.715-3.277.575-3.833 2.127a7.288 7.288 0 00-.46 2.498v6.247h4.235l.058-10.872z"/><path fill="#424243" d="M48.781 191.873v5.168H44.95v-6.055a7.084 7.084 0 01.428-2.434 3.04 3.04 0 012.957-2.038 4.12 4.12 0 01.473 0v.914a.198.198 0 10.396.006v-1.08a.192.192 0 00-.16-.191 3.5 3.5 0 00-4.062 2.268 7.48 7.48 0 00-.448 2.555v6.247a.2.2 0 00.199.198h4.234a.198.198 0 00.198-.192v-5.36a.198.198 0 00-.198-.197.198.198 0 00-.185.191z"/><path fill="#424243" d="M44.712 197.584a.351.351 0 01-.351-.351v-6.247c0-.894.155-1.78.46-2.62a3.577 3.577 0 013.487-2.407c.246 0 .492.02.735.057a.351.351 0 01.294.345v1.08a.351.351 0 11-.703 0v-.767h-.32a2.868 2.868 0 00-2.842 1.916 6.937 6.937 0 00-.415 2.376v5.896h3.552v-5.008a.351.351 0 11.702 0v5.36a.351.351 0 01-.351.35l-4.248.02zm3.596-11.319a3.27 3.27 0 00-3.193 2.204 7.326 7.326 0 00-.403 2.517v6.247h4.229a.038.038 0 00.038-.039v-5.359h-.064v5.32h-4.152v-6.17a7.243 7.243 0 01.435-2.484 3.194 3.194 0 013.136-2.153c.164-.01.328-.01.492 0h.14v1.048h.064v-1.08a.038.038 0 000-.038 4.516 4.516 0 00-.709-.006l-.013-.007z"/><path fill="#DDB99F" d="M68.014 204.4c.776 0 1.405-.63 1.405-1.406v-10.54a1.405 1.405 0 00-2.81 0v10.54c0 .776.629 1.405 1.405 1.405z"/><path fill="#424243" d="M68.014 205.038a2.038 2.038 0 01-2.031-2.031v-10.54a2.031 2.031 0 014.062 0v10.54a2.038 2.038 0 01-2.031 2.031zm0-13.356a.786.786 0 00-.78.78V203a.782.782 0 001.566 0v-10.539a.786.786 0 00-.786-.786v.007z"/><path fill="#FFF" d="M65.938 186.361a3.309 3.309 0 013.832 2.127c.292.8.441 1.646.441 2.498v6.247h-4.228l-.045-10.872z"/><path fill="#424243" d="M66.155 191.873v5.168h3.833v-6.055a7.084 7.084 0 00-.428-2.434 3.04 3.04 0 00-2.99-2.05 4.113 4.113 0 00-.472 0v.479a.198.198 0 11-.396.006v-.639a.192.192 0 01.16-.191 3.5 3.5 0 014.055 2.248 7.48 7.48 0 01.447 2.555v6.247a.198.198 0 01-.198.198h-4.183a.198.198 0 01-.198-.192v-5.359c0-.11.088-.198.198-.198.107.014.183.11.172.217z"/><path fill="#424243" d="M70.218 197.584h-4.235a.351.351 0 01-.352-.351v-5.36a.351.351 0 11.703 0v5.008h3.532v-5.895a6.937 6.937 0 00-.415-2.377 2.868 2.868 0 00-2.842-1.916h-.32v.339a.351.351 0 11-.702 0v-.639a.351.351 0 01.293-.351c.243-.038.489-.057.735-.058a3.577 3.577 0 013.488 2.408c.304.84.46 1.726.46 2.62v6.246a.351.351 0 01-.352.351l.007-.025zm-4.255-5.749v5.36c0 .02.018.038.039.038h4.228v-6.247a7.326 7.326 0 00-.44-2.51 3.27 3.27 0 00-3.194-2.204 4.548 4.548 0 00-.69.05.038.038 0 000 .039V187c0 .032.051.038.064 0v-.639h.14c.164-.01.328-.01.492 0a3.194 3.194 0 013.136 2.153 7.23 7.23 0 01.435 2.484v6.209H66.02v-5.32a.04.04 0 10-.064-.052h.006z"/><path fill="#D0D1D3" d="M57.57 206.795l-14.474-2.044v-19.514l14.474 2.044z"/><path fill="#424243" d="M57.57 206.999l-14.474-2.044a.204.204 0 01-.179-.204v-19.514a.204.204 0 01.23-.205l14.474 2.044c.103.013.18.101.18.205v19.514a.204.204 0 01-.205.204h-.026zm-14.27-2.427l14.053 1.986V187.46l-14.052-1.987v19.099z"/><path fill="#F0F1F1" d="M71.955 204.853l-14.474 2.044v-19.514l14.474-2.044z"/><path fill="#424243" d="M57.532 206.999a.204.204 0 01-.204-.204V187.28a.205.205 0 01.178-.205l14.474-2.044a.204.204 0 01.23.205v19.514a.204.204 0 01-.178.204l-14.474 2.044h-.026zm.204-19.54v19.1l14.053-1.987v-19.099l-14.053 1.987z"/><path fill="#6D6D6D" d="M50.206 205.996a3.194 3.194 0 00-3.047 3.232v16.473h6.087l.096-15.815c0-1.654 1.175-4.094-3.136-3.89z"/><path fill="#424243" d="M53.655 226.117h-6.899v-16.889a3.596 3.596 0 013.45-3.634h.485c1.31 0 2.19.274 2.696.836.638.716.523 1.712.427 2.555a8.407 8.407 0 00-.07.882l-.09 16.25zm-6.087-.812h5.282l.09-15.413a8.79 8.79 0 01.076-.97c.09-.78.173-1.508-.224-1.955-.396-.447-1.232-.639-2.554-.556a2.81 2.81 0 00-2.658 2.824l-.012 16.07z"/><path fill="#6D6D6D" d="M65.254 206.092a3.194 3.194 0 012.74 3.494l-1.494 16.41-6.062-.556 1.342-15.758c.179-1.674-.799-4.178 3.474-3.59z"/><path fill="#424243" d="M66.864 226.436l-6.866-.639 1.38-16.16a8.17 8.17 0 000-.888c0-.856-.04-1.827.6-2.478.638-.652 1.68-.818 3.321-.588.925.097 1.767.58 2.319 1.329.569.741.842 1.668.766 2.6l-1.52 16.824zm-5.991-1.36l5.257.479 1.456-16.007a2.945 2.945 0 00-.6-2.032 2.555 2.555 0 00-1.77-1.022 8.304 8.304 0 00-1.118-.09 2.127 2.127 0 00-1.533.442c-.402.415-.39 1.13-.37 1.916a8.84 8.84 0 010 .977l-1.322 15.337z"/><path fill="#404041" d="M54.166 228.94h-7.627a.358.358 0 01-.358-.358c0-1.157.938-2.095 2.096-2.095h4.158c1.157 0 2.095.938 2.095 2.095a.358.358 0 01-.364.358zm12.96-.204h-7.633a.358.358 0 01-.358-.358c0-1.156.94-2.466 2.095-2.466l4.159.37c1.157 0 2.095.939 2.095 2.096 0 .197-.16.358-.358.358z"/><path fill="#DDB99F" d="M45.658 194.78a2.21 2.21 0 01-2.166 2.255 2.178 2.178 0 01-1.948-1.278c-.46-.996-.064-1.974.422-2.874.186-.451.513-.83.932-1.08.043.273.064.548.064.824a2.095 2.095 0 011.916.422c.497.438.78 1.069.78 1.73z"/><path fill="#424243" d="M43.492 197.303a2.446 2.446 0 01-2.197-1.431c-.511-1.099-.096-2.146.428-3.117a2.51 2.51 0 011.073-1.195.268.268 0 01.377.205c0 .185.051.364.057.55.122-.008.243-.008.365 0 .543-.01 1.07.186 1.475.548a2.56 2.56 0 01.869 1.917 2.485 2.485 0 01-2.447 2.523zm-.817-5.04a3.38 3.38 0 00-.473.722c-.53.977-.798 1.795-.415 2.631.306.67.97 1.104 1.705 1.118a1.916 1.916 0 001.917-1.986 2.044 2.044 0 00-.697-1.495 1.622 1.622 0 00-1.124-.415 3.13 3.13 0 00-.575.057.268.268 0 01-.32-.261l-.018-.37z"/><path fill="#DDB99F" d="M73.232 194.888a2.19 2.19 0 01-2.14 2.255 2.255 2.255 0 110-4.51c.25.027.494.085.729.173.07 0 .306.14.338.057.053-.208.068-.424.045-.638.396.179.55.696.677 1.066.202.51.32 1.05.351 1.597z"/><path fill="#424243" d="M71.093 197.411a2.555 2.555 0 010-5.052c.218.01.433.052.638.128l.173.05h.05v-.35a.268.268 0 01.384-.25c.407.253.694.662.792 1.13l.032.097a5.36 5.36 0 01.364 1.699 2.46 2.46 0 01-2.408 2.555l-.025-.007zm0-4.51a1.987 1.987 0 000 3.974 1.916 1.916 0 001.871-1.98 4.867 4.867 0 00-.332-1.52l-.032-.096c-.045-.128-.09-.262-.153-.39.002.03.002.06 0 .09a.32.32 0 01-.307.191.888.888 0 01-.313-.077h-.045l-.191-.057a1.725 1.725 0 00-.498-.134z"/><path fill="#D0D1D3" d="M57.736 187.274l14.404-2.376 1.278 2.721z"/><path fill="#424243" d="M73.418 187.792l-15.682-.345a.185.185 0 110-.37L72.14 184.7a.185.185 0 01.198.102l1.278 2.722a.185.185 0 01-.166.261l-.032.007zm-13.682-.639l13.413.3-1.092-2.325-12.321 2.025z"/></g></svg>